Katibeh-Regular.ufo
<glyph name="ray-ar" format="1">
  <advance width="700"/>
  <unicode hex="0608"/>
  <outline>
    <contour>
      <point x="609" y="130"/>
      <point x="562" y="109"/>
      <point x="515" y="106" type="curve"/>
      <point x="508" y="148"/>
      <point x="494" y="185"/>
      <point x="476" y="210" type="curve" smooth="yes"/>
      <point x="459" y="234"/>
      <point x="433" y="254"/>
      <point x="399" y="254" type="curve" smooth="yes"/>
      <point x="350" y="254"/>
      <point x="320" y="211"/>
      <point x="317" y="180" type="curve" smooth="yes"/>
      <point x="308" y="92" type="line" smooth="yes"/>
      <point x="306" y="74"/>
      <point x="310" y="42"/>
      <point x="335" y="21" type="curve" smooth="yes"/>
      <point x="351" y="9"/>
      <point x="374" y="0"/>
      <point x="408" y="0" type="curve" smooth="yes"/>
      <point x="474" y="0" type="line"/>
      <point x="477" y="-9"/>
      <point x="481" y="-23"/>
      <point x="484" y="-34" type="curve"/>
      <point x="469" y="-72"/>
      <point x="423" y="-121"/>
      <point x="323" y="-121" type="curve" smooth="yes"/>
      <point x="269" y="-121"/>
      <point x="227" y="-107"/>
      <point x="199" y="-87" type="curve" smooth="yes"/>
      <point x="154" y="-55"/>
      <point x="146" y="-10"/>
      <point x="146" y="16" type="curve" smooth="yes"/>
      <point x="146" y="58"/>
      <point x="166" y="97"/>
      <point x="180" y="114" type="curve"/>
      <point x="164" y="130" type="line"/>
      <point x="144" y="106"/>
      <point x="131" y="80"/>
      <point x="123" y="56" type="curve" smooth="yes"/>
      <point x="108" y="11"/>
      <point x="107" y="-38"/>
      <point x="107" y="-49" type="curve" smooth="yes"/>
      <point x="107" y="-85"/>
      <point x="117" y="-145"/>
      <point x="163" y="-188" type="curve" smooth="yes"/>
      <point x="194" y="-217"/>
      <point x="242" y="-239"/>
      <point x="307" y="-239" type="curve" smooth="yes"/>
      <point x="366" y="-239"/>
      <point x="418" y="-221"/>
      <point x="458" y="-187" type="curve" smooth="yes"/>
      <point x="496" y="-155"/>
      <point x="530" y="-100"/>
      <point x="530" y="-28" type="curve" smooth="yes"/>
      <point x="530" y="-19"/>
      <point x="530" y="-9"/>
      <point x="529" y="0" type="curve"/>
      <point x="569" y="4"/>
      <point x="623" y="23"/>
      <point x="650" y="51" type="curve"/>
      <point x="650" y="157" type="line"/>
    </contour>
    <contour>
      <point x="344" y="106"/>
      <point x="343" y="132"/>
      <point x="343" y="132" type="curve" smooth="yes"/>
      <point x="343" y="132"/>
      <point x="359" y="166"/>
      <point x="390" y="166" type="curve" smooth="yes"/>
      <point x="424" y="166"/>
      <point x="439" y="125"/>
      <point x="444" y="106" type="curve"/>
      <point x="377" y="106" type="line" smooth="yes"/>
    </contour>
    <contour>
      <point x="70" y="71" type="line"/>
      <point x="70" y="19" type="line"/>
      <point x="91" y="43"/>
      <point x="121" y="67"/>
      <point x="149" y="80" type="curve"/>
      <point x="164" y="130" type="line"/>
    </contour>
    <contour>
      <point x="399" y="284" type="move" name="top"/>
    </contour>
    <contour>
      <point x="307" y="-269" type="move" name="bottom"/>
    </contour>
  </outline>
</glyph>
<glyph name="sadabove-ar" format="1">
  <advance width="0"/>
  <unicode hex="0610"/>
  <outline>
    <contour>
      <point x="24" y="842"/>
      <point x="4" y="829"/>
      <point x="-11" y="813" type="curve" smooth="yes"/>
      <point x="-23" y="802"/>
      <point x="-32" y="791"/>
      <point x="-38" y="781" type="curve"/>
      <point x="-48" y="782"/>
      <point x="-56" y="783"/>
      <point x="-62" y="788" type="curve" smooth="yes"/>
      <point x="-68" y="791"/>
      <point x="-72" y="797"/>
      <point x="-75" y="806" type="curve"/>
      <point x="-83" y="798" type="line"/>
      <point x="-83" y="798"/>
      <point x="-87" y="776"/>
      <point x="-74" y="755" type="curve" smooth="yes"/>
      <point x="-69" y="747"/>
      <point x="-56" y="726"/>
      <point x="-49" y="702" type="curve"/>
      <point x="-40" y="707" type="line"/>
      <point x="-38" y="720"/>
      <point x="-39" y="734"/>
      <point x="-42" y="745" type="curve"/>
      <point x="-28" y="743"/>
      <point x="-18" y="741"/>
      <point x="-2" y="741" type="curve" smooth="yes"/>
      <point x="28" y="741"/>
      <point x="50" y="751"/>
      <point x="64" y="763" type="curve" smooth="yes"/>
      <point x="77" y="775"/>
      <point x="83" y="786"/>
      <point x="89" y="805" type="curve"/>
      <point x="80" y="829"/>
      <point x="67" y="842"/>
      <point x="42" y="842" type="curve" smooth="yes"/>
    </contour>
    <contour>
      <point x="-27" y="780" type="line" smooth="yes"/>
      <point x="-27" y="780"/>
      <point x="-21" y="789"/>
      <point x="-10" y="800" type="curve" smooth="yes"/>
      <point x="3" y="810"/>
      <point x="20" y="820"/>
      <point x="41" y="820" type="curve" smooth="yes"/>
      <point x="51" y="820"/>
      <point x="59" y="816"/>
      <point x="65" y="813" type="curve" smooth="yes"/>
      <point x="73" y="806"/>
      <point x="76" y="799"/>
      <point x="76" y="799" type="curve"/>
      <point x="75" y="796"/>
      <point x="64" y="780"/>
      <point x="9" y="780" type="curve" smooth="yes"/>
    </contour>
    <contour>
      <point x="3" y="842" type="move" name="top"/>
    </contour>
    <contour>
      <point x="3" y="682" type="move" name="_top"/>
    </contour>
  </outline>
</glyph>
<glyph name="takhallusabove-ar" format="1">
  <advance width="0"/>
  <unicode hex="0614"/>
  <outline>
    <contour>
      <point x="99" y="763" type="line"/>
      <point x="99" y="751"/>
      <point x="89" y="738"/>
      <point x="74" y="738" type="curve" smooth="yes"/>
      <point x="69" y="738"/>
      <point x="63" y="740"/>
      <point x="56" y="743" type="curve" smooth="yes"/>
      <point x="44" y="750"/>
      <point x="42" y="759"/>
      <point x="41" y="766" type="curve"/>
      <point x="33" y="762"/>
      <point x="32" y="762"/>
      <point x="31" y="762" type="curve"/>
      <point x="27" y="747"/>
      <point x="17" y="741"/>
      <point x="-5" y="741" type="curve"/>
      <point x="-88" y="741" type="line"/>
      <point x="-103" y="700" type="line"/>
      <point x="-3" y="700" type="line" smooth="yes"/>
      <point x="29" y="700"/>
      <point x="37" y="716"/>
      <point x="39" y="721" type="curve"/>
      <point x="43" y="710"/>
      <point x="57" y="700"/>
      <point x="78" y="700" type="curve" smooth="yes"/>
      <point x="87" y="700"/>
      <point x="103" y="730"/>
      <point x="104" y="735" type="curve" smooth="yes"/>
      <point x="106" y="741"/>
      <point x="107" y="758"/>
      <point x="107" y="766" type="curve"/>
    </contour>
    <contour>
      <point x="2" y="766" type="move" name="top"/>
    </contour>
    <contour>
      <point x="2" y="680" type="move" name="_top"/>
    </contour>
  </outline>
</glyph>
<glyph name="seen-ar" format="1">
  <advance width="866"/>
  <unicode hex="0633"/>
  <outline>
    <contour>
      <point x="723" y="198" type="line"/>
      <point x="733" y="172"/>
      <point x="741" y="139"/>
      <point x="740" y="116" type="curve"/>
      <point x="740" y="116"/>
      <point x="697" y="111"/>
      <point x="668" y="126" type="curve" smooth="yes"/>
      <point x="637" y="142"/>
      <point x="627" y="180"/>
      <point x="626" y="207" type="curve"/>
      <point x="611" y="215" type="line"/>
      <point x="608" y="179"/>
      <point x="603" y="155"/>
      <point x="575" y="133" type="curve" smooth="yes"/>
      <point x="559" y="121"/>
      <point x="537" y="112"/>
      <point x="505" y="112" type="curve" smooth="yes"/>
      <point x="481" y="112"/>
      <point x="460" y="117"/>
      <point x="442" y="128" type="curve" smooth="yes"/>
      <point x="424" y="139"/>
      <point x="415" y="155"/>
      <point x="406" y="178" type="curve"/>
      <point x="390" y="162" type="line"/>
      <point x="387" y="152"/>
      <point x="386" y="144"/>
      <point x="386" y="129" type="curve" smooth="yes"/>
      <point x="386" y="91"/>
      <point x="392" y="77"/>
      <point x="416" y="41" type="curve" smooth="yes"/>
      <point x="440" y="6"/>
      <point x="461" y="-16"/>
      <point x="468" y="-25" type="curve"/>
      <point x="460" y="-47"/>
      <point x="442" y="-85"/>
      <point x="373" y="-107" type="curve" smooth="yes"/>
      <point x="351" y="-114"/>
      <point x="320" y="-121"/>
      <point x="285" y="-121" type="curve" smooth="yes"/>
      <point x="230" y="-121"/>
      <point x="190" y="-104"/>
      <point x="164" y="-86" type="curve" smooth="yes"/>
      <point x="113" y="-51"/>
      <point x="109" y="-7"/>
      <point x="109" y="14" type="curve" smooth="yes"/>
      <point x="109" y="64"/>
      <point x="131" y="100"/>
      <point x="143" y="115" type="curve"/>
      <point x="127" y="131" type="line"/>
      <point x="107" y="108"/>
      <point x="94" y="81"/>
      <point x="86" y="57" type="curve" smooth="yes"/>
      <point x="71" y="12"/>
      <point x="70" y="-37"/>
      <point x="70" y="-48" type="curve" smooth="yes"/>
      <point x="70" y="-84"/>
      <point x="80" y="-144"/>
      <point x="126" y="-187" type="curve" smooth="yes"/>
      <point x="157" y="-216"/>
      <point x="205" y="-238"/>
      <point x="276" y="-238" type="curve" smooth="yes"/>
      <point x="337" y="-238"/>
      <point x="396" y="-222"/>
      <point x="439" y="-184" type="curve" smooth="yes"/>
      <point x="473" y="-154"/>
      <point x="503" y="-105"/>
      <point x="503" y="-36" type="curve" smooth="yes"/>
      <point x="503" y="-23"/>
      <point x="502" y="-8"/>
      <point x="501" y="5" type="curve"/>
      <point x="530" y="6"/>
      <point x="555" y="11"/>
      <point x="572" y="19" type="curve" smooth="yes"/>
      <point x="597" y="31"/>
      <point x="614" y="54"/>
      <point x="618" y="75" type="curve"/>
      <point x="625" y="60"/>
      <point x="632" y="45"/>
      <point x="650" y="31" type="curve" smooth="yes"/>
      <point x="664" y="20"/>
      <point x="687" y="6"/>
      <point x="708" y="6" type="curve" smooth="yes"/>
      <point x="760" y="6"/>
      <point x="794" y="88"/>
      <point x="799" y="102" type="curve" smooth="yes"/>
      <point x="805" y="119"/>
      <point x="806" y="144"/>
      <point x="806" y="159" type="curve" smooth="yes"/>
      <point x="806" y="208"/>
      <point x="795" y="250"/>
      <point x="776" y="267" type="curve"/>
    </contour>
    <contour>
      <point x="609" y="251" type="move" name="top"/>
    </contour>
    <contour>
      <point x="276" y="-264" type="move" name="bottom"/>
    </contour>
  </outline>
</glyph>
<glyph name="sad-ar" format="1">
  <advance width="943"/>
  <unicode hex="0635"/>
  <outline>
    <contour>
      <point x="693" y="283"/>
      <point x="636" y="245"/>
      <point x="591" y="199" type="curve" smooth="yes"/>
      <point x="558" y="167"/>
      <point x="531" y="135"/>
      <point x="514" y="106" type="curve"/>
      <point x="484" y="109"/>
      <point x="461" y="112"/>
      <point x="443" y="124" type="curve" smooth="yes"/>
      <point x="427" y="135"/>
      <point x="415" y="151"/>
      <point x="406" y="178" type="curve"/>
      <point x="390" y="162" type="line"/>
      <point x="390" y="162"/>
      <point x="386" y="149"/>
      <point x="386" y="129" type="curve" smooth="yes"/>
      <point x="386" y="105"/>
      <point x="392" y="69"/>
      <point x="420" y="34" type="curve" smooth="yes"/>
      <point x="435" y="16"/>
      <point x="461" y="-16"/>
      <point x="468" y="-25" type="curve"/>
      <point x="463" y="-41"/>
      <point x="442" y="-85"/>
      <point x="373" y="-108" type="curve" smooth="yes"/>
      <point x="351" y="-115"/>
      <point x="322" y="-120"/>
      <point x="286" y="-120" type="curve" smooth="yes"/>
      <point x="229" y="-120"/>
      <point x="190" y="-106"/>
      <point x="163" y="-86" type="curve" smooth="yes"/>
      <point x="116" y="-52"/>
      <point x="109" y="-9"/>
      <point x="109" y="9" type="curve" smooth="yes"/>
      <point x="109" y="65"/>
      <point x="128" y="95"/>
      <point x="143" y="115" type="curve"/>
      <point x="127" y="131" type="line"/>
      <point x="107" y="108"/>
      <point x="95" y="83"/>
      <point x="86" y="57" type="curve" smooth="yes"/>
      <point x="70" y="7"/>
      <point x="70" y="-39"/>
      <point x="70" y="-51" type="curve" smooth="yes"/>
      <point x="70" y="-83"/>
      <point x="80" y="-144"/>
      <point x="126" y="-187" type="curve" smooth="yes"/>
      <point x="157" y="-216"/>
      <point x="205" y="-238"/>
      <point x="276" y="-238" type="curve" smooth="yes"/>
      <point x="335" y="-238"/>
      <point x="395" y="-222"/>
      <point x="439" y="-185" type="curve" smooth="yes"/>
      <point x="476" y="-152"/>
      <point x="502" y="-103"/>
      <point x="503" y="-32" type="curve" smooth="yes"/>
      <point x="503" y="-22"/>
      <point x="502" y="-11"/>
      <point x="501" y="0" type="curve"/>
      <point x="542" y="-6"/>
      <point x="572" y="-10"/>
      <point x="618" y="-10" type="curve" smooth="yes"/>
      <point x="706" y="-10"/>
      <point x="769" y="18"/>
      <point x="810" y="53" type="curve" smooth="yes"/>
      <point x="850" y="87"/>
      <point x="866" y="119"/>
      <point x="883" y="176" type="curve"/>
      <point x="858" y="244"/>
      <point x="820" y="283"/>
      <point x="747" y="283" type="curve" smooth="yes"/>
    </contour>
    <contour>
      <point x="558" y="102" type="line" smooth="yes"/>
      <point x="558" y="102"/>
      <point x="572" y="124"/>
      <point x="601" y="149" type="curve" smooth="yes"/>
      <point x="630" y="174"/>
      <point x="671" y="199"/>
      <point x="723" y="199" type="curve" smooth="yes"/>
      <point x="749" y="199"/>
      <point x="767" y="191"/>
      <point x="781" y="181" type="curve" smooth="yes"/>
      <point x="801" y="166"/>
      <point x="809" y="147"/>
      <point x="809" y="147" type="curve"/>
      <point x="805" y="142"/>
      <point x="779" y="102"/>
      <point x="645" y="102" type="curve" smooth="yes"/>
    </contour>
    <contour>
      <point x="647" y="-85" type="move" name="center"/>
    </contour>
    <contour>
      <point x="276" y="-264" type="move" name="bottom"/>
    </contour>
    <contour>
      <point x="729" y="310" type="move" name="top"/>
    </contour>
  </outline>
</glyph>
<glyph name="kashida-ar" format="1">
  <advance width="140"/>
  <unicode hex="0640"/>
  <outline>
    <contour>
      <point x="-17" y="106" type="line" smooth="yes"/>
      <point x="-46" y="106"/>
      <point x="-70" y="82"/>
      <point x="-70" y="53" type="curve" smooth="yes"/>
      <point x="-70" y="24"/>
      <point x="-46" y="0"/>
      <point x="-17" y="0" type="curve" smooth="yes"/>
      <point x="140" y="0" type="line"/>
      <point x="140" y="106" type="line"/>
    </contour>
  </outline>
</glyph>
<glyph name="waw-ar" format="1">
  <advance width="343"/>
  <unicode hex="0648"/>
  <outline>
    <contour>
      <point x="111" y="254"/>
      <point x="81" y="211"/>
      <point x="78" y="179" type="curve"/>
      <point x="69" y="92" type="line"/>
      <point x="68" y="75"/>
      <point x="71" y="46"/>
      <point x="93" y="25" type="curve" smooth="yes"/>
      <point x="108" y="11"/>
      <point x="132" y="0"/>
      <point x="170" y="0" type="curve" smooth="yes"/>
      <point x="186" y="0" type="line"/>
      <point x="217" y="52" type="line"/>
      <point x="221" y="40"/>
      <point x="225" y="26"/>
      <point x="227" y="17" type="curve"/>
      <point x="214" y="-26"/>
      <point x="190" y="-53"/>
      <point x="161" y="-70" type="curve" smooth="yes"/>
      <point x="117" y="-96"/>
      <point x="63" y="-97"/>
      <point x="30" y="-98" type="curve"/>
      <point x="30" y="-203" type="line"/>
      <point x="74" y="-201"/>
      <point x="94" y="-235"/>
      <point x="101" y="-255" type="curve"/>
      <point x="104" y="-254" type="line"/>
      <point x="104" y="-197" type="line"/>
      <point x="118" y="-197"/>
      <point x="162" y="-193"/>
      <point x="202" y="-165" type="curve" smooth="yes"/>
      <point x="225" y="-149"/>
      <point x="246" y="-126"/>
      <point x="262" y="-92" type="curve" smooth="yes"/>
      <point x="276" y="-60"/>
      <point x="284" y="-20"/>
      <point x="283" y="33" type="curve"/>
      <point x="283" y="94"/>
      <point x="270" y="153"/>
      <point x="246" y="195" type="curve" smooth="yes"/>
      <point x="226" y="231"/>
      <point x="197" y="254"/>
      <point x="161" y="254" type="curve" smooth="yes"/>
    </contour>
    <contour>
      <point x="105" y="106"/>
      <point x="104" y="132"/>
      <point x="104" y="132" type="curve" smooth="yes"/>
      <point x="104" y="132"/>
      <point x="119" y="163"/>
      <point x="151" y="165" type="curve" smooth="yes"/>
      <point x="185" y="168"/>
      <point x="200" y="124"/>
      <point x="206" y="106" type="curve"/>
      <point x="139" y="106" type="line" smooth="yes"/>
    </contour>
    <contour>
      <point x="161" y="284" type="move" name="top"/>
    </contour>
    <contour>
      <point x="131" y="-280" type="move" name="bottom"/>
    </contour>
    <contour>
      <point x="22" y="-21" type="move" name="center"/>
    </contour>
  </outline>
</glyph>
<glyph name="wavyhamzabelow-ar" format="1">
  <advance width="0"/>
  <unicode hex="065F"/>
  <outline>
    <contour>
      <point x="21" y="-279"/>
      <point x="4" y="-257"/>
      <point x="1" y="-251" type="curve"/>
      <point x="2" y="-250"/>
      <point x="19" y="-237"/>
      <point x="32" y="-237" type="curve" smooth="yes"/>
      <point x="35" y="-237"/>
      <point x="46" y="-241"/>
      <point x="52" y="-254" type="curve"/>
      <point x="72" y="-236" type="line"/>
      <point x="72" y="-236"/>
      <point x="66" y="-203"/>
      <point x="39" y="-203" type="curve" smooth="yes"/>
      <point x="9" y="-203"/>
      <point x="-23" y="-247"/>
      <point x="-26" y="-251" type="curve"/>
      <point x="-27" y="-254"/>
      <point x="-29" y="-257"/>
      <point x="-29" y="-260" type="curve" smooth="yes"/>
      <point x="-29" y="-272"/>
      <point x="-21" y="-291"/>
      <point x="12" y="-301" type="curve"/>
      <point x="9" y="-304"/>
      <point x="3" y="-308"/>
      <point x="-5" y="-308" type="curve" smooth="yes"/>
      <point x="-26" y="-308"/>
      <point x="-31" y="-297"/>
      <point x="-45" y="-297" type="curve" smooth="yes"/>
      <point x="-55" y="-297"/>
      <point x="-66" y="-301"/>
      <point x="-74" y="-311" type="curve" smooth="yes"/>
      <point x="-79" y="-317"/>
      <point x="-84" y="-325"/>
      <point x="-87" y="-334" type="curve"/>
      <point x="-80" y="-339" type="line"/>
      <point x="-75" y="-334"/>
      <point x="-69" y="-332"/>
      <point x="-63" y="-332" type="curve" smooth="yes"/>
      <point x="-47" y="-332"/>
      <point x="-37" y="-352"/>
      <point x="-15" y="-352" type="curve" smooth="yes"/>
      <point x="7" y="-352"/>
      <point x="17" y="-340"/>
      <point x="29" y="-329" type="curve" smooth="yes"/>
      <point x="38" y="-318"/>
      <point x="50" y="-306"/>
      <point x="71" y="-301" type="curve"/>
      <point x="86" y="-264" type="line"/>
      <point x="55" y="-271" type="line" smooth="yes"/>
    </contour>
    <contour>
      <point x="-1" y="-183" type="move" name="_bottom"/>
    </contour>
    <contour>
      <point x="-1" y="-352" type="move" name="bottom"/>
    </contour>
  </outline>
</glyph>
<glyph name="two-ar" format="1">
  <advance width="417"/>
  <unicode hex="0662"/>
  <outline>
    <contour>
      <point x="323" y="583" type="line"/>
      <point x="318" y="557"/>
      <point x="311" y="485"/>
      <point x="224" y="485" type="curve" smooth="yes"/>
      <point x="187" y="485"/>
      <point x="158" y="511"/>
      <point x="138" y="536" type="curve" smooth="yes"/>
      <point x="120" y="560"/>
      <point x="110" y="583"/>
      <point x="110" y="583" type="curve" smooth="yes"/>
      <point x="110" y="583"/>
      <point x="82" y="527"/>
      <point x="73" y="508" type="curve" smooth="yes"/>
      <point x="64" y="490"/>
      <point x="52" y="471"/>
      <point x="68" y="422" type="curve" smooth="yes"/>
      <point x="85" y="372"/>
      <point x="108" y="321"/>
      <point x="128" y="235" type="curve" smooth="yes"/>
      <point x="142" y="176"/>
      <point x="154" y="102"/>
      <point x="162" y="0" type="curve"/>
      <point x="172" y="0" type="line"/>
      <point x="172" y="0"/>
      <point x="200" y="56"/>
      <point x="200" y="111" type="curve" smooth="yes"/>
      <point x="200" y="215"/>
      <point x="191" y="302"/>
      <point x="178" y="374" type="curve"/>
      <point x="198" y="372"/>
      <point x="233" y="374"/>
      <point x="265" y="389" type="curve" smooth="yes"/>
      <point x="303" y="406"/>
      <point x="338" y="441"/>
      <point x="346" y="506" type="curve" smooth="yes"/>
      <point x="348" y="528"/>
      <point x="346" y="551"/>
      <point x="345" y="574" type="curve"/>
    </contour>
  </outline>
</glyph>
<glyph name="seven-ar" format="1">
  <advance width="547"/>
  <unicode hex="0667"/>
  <outline>
    <contour>
      <point x="442" y="577" type="line"/>
      <point x="407" y="541"/>
      <point x="372" y="485"/>
      <point x="342" y="411" type="curve" smooth="yes"/>
      <point x="317" y="347"/>
      <point x="296" y="270"/>
      <point x="284" y="180" type="curve"/>
      <point x="267" y="261"/>
      <point x="242" y="338"/>
      <point x="214" y="404" type="curve" smooth="yes"/>
      <point x="181" y="478"/>
      <point x="142" y="539"/>
      <point x="101" y="577" type="curve"/>
      <point x="60" y="451" type="line"/>
      <point x="91" y="422"/>
      <point x="136" y="356"/>
      <point x="177" y="275" type="curve" smooth="yes"/>
      <point x="220" y="192"/>
      <point x="258" y="92"/>
      <point x="273" y="0" type="curve"/>
      <point x="305" y="0" type="line"/>
      <point x="316" y="126"/>
      <point x="348" y="228"/>
      <point x="383" y="304" type="curve" smooth="yes"/>
      <point x="418" y="380"/>
      <point x="456" y="430"/>
      <point x="477" y="452" type="curve"/>
    </contour>
  </outline>
</glyph>
<glyph name="thousandseparator-ar" format="1">
  <advance width="130"/>
  <unicode hex="066C"/>
  <outline>
    <contour>
      <point x="77" y="107" type="line"/>
      <point x="0" y="-82" type="line"/>
      <point x="53" y="-82" type="line"/>
      <point x="130" y="107" type="line"/>
    </contour>
  </outline>
</glyph>
<glyph name="dotlessqaf-ar" format="1">
  <advance width="567"/>
  <unicode hex="066F"/>
  <outline>
    <contour>
      <point x="320" y="282"/>
      <point x="282" y="241"/>
      <point x="282" y="198" type="curve" smooth="yes"/>
      <point x="282" y="110" type="line" smooth="yes"/>
      <point x="283" y="91"/>
      <point x="287" y="60"/>
      <point x="320" y="39" type="curve" smooth="yes"/>
      <point x="338" y="28"/>
      <point x="366" y="20"/>
      <point x="408" y="20" type="curve"/>
      <point x="435" y="71" type="line"/>
      <point x="441" y="51"/>
      <point x="454" y="11"/>
      <point x="461" y="-14" type="curve"/>
      <point x="448" y="-48"/>
      <point x="402" y="-101"/>
      <point x="289" y="-101" type="curve" smooth="yes"/>
      <point x="231" y="-101"/>
      <point x="190" y="-87"/>
      <point x="163" y="-68" type="curve" smooth="yes"/>
      <point x="114" y="-34"/>
      <point x="109" y="17"/>
      <point x="109" y="37" type="curve" smooth="yes"/>
      <point x="109" y="78"/>
      <point x="129" y="117"/>
      <point x="143" y="134" type="curve"/>
      <point x="127" y="150" type="line"/>
      <point x="107" y="127"/>
      <point x="94" y="100"/>
      <point x="86" y="76" type="curve" smooth="yes"/>
      <point x="71" y="31"/>
      <point x="70" y="-18"/>
      <point x="70" y="-29" type="curve" smooth="yes"/>
      <point x="70" y="-65"/>
      <point x="80" y="-125"/>
      <point x="126" y="-168" type="curve" smooth="yes"/>
      <point x="157" y="-197"/>
      <point x="206" y="-219"/>
      <point x="275" y="-219" type="curve" smooth="yes"/>
      <point x="337" y="-219"/>
      <point x="395" y="-201"/>
      <point x="435" y="-168" type="curve" smooth="yes"/>
      <point x="474" y="-136"/>
      <point x="507" y="-82"/>
      <point x="507" y="6" type="curve" smooth="yes"/>
      <point x="507" y="64"/>
      <point x="493" y="133"/>
      <point x="473" y="183" type="curve" smooth="yes"/>
      <point x="449" y="243"/>
      <point x="414" y="282"/>
      <point x="368" y="282" type="curve" smooth="yes"/>
    </contour>
    <contour>
      <point x="317" y="126"/>
      <point x="313" y="148"/>
      <point x="313" y="148" type="curve" smooth="yes"/>
      <point x="313" y="148"/>
      <point x="329" y="187"/>
      <point x="362" y="187" type="curve" smooth="yes"/>
      <point x="403" y="187"/>
      <point x="419" y="126"/>
      <point x="419" y="126" type="curve" smooth="yes"/>
      <point x="419" y="126"/>
      <point x="363" y="126"/>
      <point x="352" y="126" type="curve" smooth="yes"/>
    </contour>
    <contour>
      <point x="365" y="297" type="move" name="top"/>
    </contour>
    <contour>
      <point x="275" y="-245" type="move" name="bottom"/>
    </contour>
  </outline>
</glyph>
<glyph name="uHamzaabove-ar" format="1">
  <advance width="370"/>
  <unicode hex="0677"/>
  <outline>
    <contour>
      <point x="111" y="254"/>
      <point x="81" y="211"/>
      <point x="78" y="179" type="curve"/>
      <point x="69" y="92" type="line"/>
      <point x="68" y="75"/>
      <point x="71" y="46"/>
      <point x="93" y="25" type="curve" smooth="yes"/>
      <point x="108" y="11"/>
      <point x="132" y="0"/>
      <point x="170" y="0" type="curve" smooth="yes"/>
      <point x="186" y="0" type="line"/>
      <point x="217" y="52" type="line"/>
      <point x="221" y="40"/>
      <point x="225" y="26"/>
      <point x="227" y="17" type="curve"/>
      <point x="214" y="-26"/>
      <point x="190" y="-53"/>
      <point x="161" y="-70" type="curve" smooth="yes"/>
      <point x="117" y="-96"/>
      <point x="63" y="-97"/>
      <point x="30" y="-98" type="curve"/>
      <point x="30" y="-203" type="line"/>
      <point x="74" y="-201"/>
      <point x="94" y="-235"/>
      <point x="101" y="-255" type="curve"/>
      <point x="104" y="-254" type="line"/>
      <point x="104" y="-197" type="line"/>
      <point x="118" y="-197"/>
      <point x="162" y="-193"/>
      <point x="202" y="-165" type="curve" smooth="yes"/>
      <point x="225" y="-149"/>
      <point x="246" y="-126"/>
      <point x="262" y="-92" type="curve" smooth="yes"/>
      <point x="276" y="-60"/>
      <point x="284" y="-20"/>
      <point x="283" y="33" type="curve"/>
      <point x="283" y="94"/>
      <point x="270" y="153"/>
      <point x="246" y="195" type="curve" smooth="yes"/>
      <point x="226" y="231"/>
      <point x="197" y="254"/>
      <point x="161" y="254" type="curve" smooth="yes"/>
    </contour>
    <contour>
      <point x="105" y="106"/>
      <point x="104" y="132"/>
      <point x="104" y="132" type="curve" smooth="yes"/>
      <point x="104" y="132"/>
      <point x="119" y="163"/>
      <point x="151" y="165" type="curve" smooth="yes"/>
      <point x="185" y="168"/>
      <point x="200" y="124"/>
      <point x="206" y="106" type="curve"/>
      <point x="139" y="106" type="line" smooth="yes"/>
    </contour>
    <contour>
      <point x="177" y="402"/>
      <point x="174" y="429"/>
      <point x="155" y="439" type="curve" smooth="yes"/>
      <point x="141" y="447"/>
      <point x="124" y="439"/>
      <point x="118" y="430" type="curve"/>
      <point x="100" y="403" type="line"/>
      <point x="94" y="396"/>
      <point x="87" y="373"/>
      <point x="115" y="358" type="curve" smooth="yes"/>
      <point x="130" y="350" type="line"/>
      <point x="130" y="350"/>
      <point x="99" y="325"/>
      <point x="61" y="322" type="curve"/>
      <point x="37" y="286" type="line"/>
      <point x="45" y="282" type="line"/>
      <point x="84" y="289"/>
      <point x="130" y="307"/>
      <point x="150" y="340" type="curve"/>
      <point x="172" y="330" type="line"/>
      <point x="181" y="367" type="line"/>
      <point x="167" y="374" type="line"/>
    </contour>
    <contour>
      <point x="115" y="398"/>
      <point x="119" y="406"/>
      <point x="119" y="406" type="curve" smooth="yes"/>
      <point x="119" y="406"/>
      <point x="130" y="414"/>
      <point x="139" y="409" type="curve" smooth="yes"/>
      <point x="151" y="404"/>
      <point x="148" y="388"/>
      <point x="148" y="381" type="curve"/>
      <point x="126" y="393" type="line" smooth="yes"/>
    </contour>
    <contour>
      <point x="247" y="351"/>
      <point x="233" y="370"/>
      <point x="229" y="378" type="curve"/>
      <point x="231" y="378"/>
      <point x="247" y="390"/>
      <point x="259" y="390" type="curve" smooth="yes"/>
      <point x="263" y="390"/>
      <point x="273" y="386"/>
      <point x="279" y="374" type="curve"/>
      <point x="299" y="391" type="line"/>
      <point x="299" y="391"/>
      <point x="293" y="423"/>
      <point x="267" y="423" type="curve" smooth="yes"/>
      <point x="237" y="423"/>
      <point x="207" y="380"/>
      <point x="204" y="378" type="curve"/>
      <point x="203" y="374"/>
      <point x="203" y="372"/>
      <point x="203" y="368" type="curve" smooth="yes"/>
      <point x="203" y="342"/>
      <point x="227" y="331"/>
      <point x="227" y="331" type="curve"/>
      <point x="221" y="330"/>
      <point x="205" y="325"/>
      <point x="198" y="321" type="curve"/>
      <point x="175" y="286" type="line"/>
      <point x="181" y="282" type="line"/>
      <point x="210" y="297"/>
      <point x="255" y="313"/>
      <point x="309" y="322" type="curve"/>
      <point x="309" y="322"/>
      <point x="310" y="344"/>
      <point x="310" y="344" type="curve"/>
      <point x="306" y="352"/>
      <point x="293" y="350"/>
      <point x="275" y="345" type="curve"/>
    </contour>
    <contour>
      <point x="190" y="463" type="move" name="top"/>
    </contour>
    <contour>
      <point x="131" y="-280" type="move" name="bottom"/>
    </contour>
  </outline>
</glyph>
<glyph name="dotlessfeh-ar" format="1">
  <advance width="920"/>
  <unicode hex="06A1"/>
  <outline>
    <contour>
      <point x="860" y="252"/>
      <point x="852" y="284"/>
      <point x="836" y="308" type="curve" smooth="yes"/>
      <point x="817" y="338"/>
      <point x="784" y="357"/>
      <point x="738" y="357" type="curve" smooth="yes"/>
      <point x="681" y="357"/>
      <point x="642" y="323"/>
      <point x="642" y="264" type="curve" smooth="yes"/>
      <point x="642" y="193" type="line"/>
      <point x="642" y="193"/>
      <point x="678" y="190"/>
      <point x="710" y="178" type="curve" smooth="yes"/>
      <point x="726" y="172"/>
      <point x="745" y="163"/>
      <point x="762" y="143" type="curve"/>
      <point x="741" y="133"/>
      <point x="697" y="117"/>
      <point x="634" y="104" type="curve" smooth="yes"/>
      <point x="580" y="93"/>
      <point x="509" y="83"/>
      <point x="425" y="83" type="curve" smooth="yes"/>
      <point x="277" y="83"/>
      <point x="207" y="114"/>
      <point x="183" y="128" type="curve" smooth="yes"/>
      <point x="149" y="148"/>
      <point x="118" y="188"/>
      <point x="118" y="250" type="curve" smooth="yes"/>
      <point x="118" y="294"/>
      <point x="134" y="327"/>
      <point x="142" y="341" type="curve"/>
      <point x="126" y="356" type="line"/>
      <point x="97" y="330"/>
      <point x="70" y="255"/>
      <point x="70" y="191" type="curve" smooth="yes"/>
      <point x="70" y="121"/>
      <point x="103" y="67"/>
      <point x="154" y="32" type="curve" smooth="yes"/>
      <point x="210" y="-6"/>
      <point x="292" y="-24"/>
      <point x="394" y="-24" type="curve" smooth="yes"/>
      <point x="470" y="-24"/>
      <point x="550" y="-14"/>
      <point x="612" y="0" type="curve" smooth="yes"/>
      <point x="709" y="22"/>
      <point x="766" y="55"/>
      <point x="805" y="84" type="curve"/>
      <point x="817" y="66"/>
      <point x="821" y="52"/>
      <point x="824" y="32" type="curve"/>
      <point x="824" y="32"/>
      <point x="833" y="66"/>
      <point x="828" y="109" type="curve"/>
      <point x="828" y="109"/>
      <point x="860" y="156"/>
      <point x="860" y="218" type="curve" smooth="yes"/>
    </contour>
    <contour>
      <point x="775" y="268"/>
      <point x="790" y="263"/>
      <point x="800" y="254" type="curve" smooth="yes"/>
      <point x="813" y="243"/>
      <point x="820" y="227"/>
      <point x="820" y="209" type="curve" smooth="yes"/>
      <point x="820" y="197"/>
      <point x="817" y="183"/>
      <point x="810" y="169" type="curve"/>
      <point x="801" y="189"/>
      <point x="785" y="207"/>
      <point x="767" y="220" type="curve" smooth="yes"/>
      <point x="748" y="234"/>
      <point x="725" y="243"/>
      <point x="704" y="248" type="curve"/>
      <point x="725" y="263"/>
      <point x="743" y="268"/>
      <point x="758" y="268" type="curve" smooth="yes"/>
    </contour>
    <contour>
      <point x="725" y="372" type="move" name="top"/>
    </contour>
    <contour>
      <point x="426" y="-64" type="move" name="bottom"/>
    </contour>
    <contour>
      <point x="688" y="-113" type="move" name="center"/>
    </contour>
  </outline>
</glyph>
<glyph name="yehTail-ar" format="1">
  <advance width="663"/>
  <unicode hex="06CD"/>
  <outline>
    <contour>
      <point x="70" y="146" type="line"/>
      <point x="70" y="94" type="line"/>
      <point x="91" y="117"/>
      <point x="120" y="142"/>
      <point x="147" y="154" type="curve"/>
      <point x="164" y="205" type="line"/>
    </contour>
    <component base="alefMaksura-ar" xOffset="28" yOffset="15" xScale="1.07" yScale="1.07"/>
  </outline>
</glyph>
<glyph name="seenabove-ar" format="1">
  <advance width="0"/>
  <unicode hex="06DC"/>
  <outline>
    <contour>
      <point x="75" y="818" type="line"/>
      <point x="77" y="811"/>
      <point x="79" y="802"/>
      <point x="79" y="796" type="curve"/>
      <point x="79" y="796"/>
      <point x="67" y="795"/>
      <point x="60" y="798" type="curve" smooth="yes"/>
      <point x="52" y="802"/>
      <point x="49" y="812"/>
      <point x="48" y="821" type="curve"/>
      <point x="44" y="822" type="line"/>
      <point x="43" y="809"/>
      <point x="40" y="805"/>
      <point x="35" y="801" type="curve" smooth="yes"/>
      <point x="30" y="797"/>
      <point x="24" y="795"/>
      <point x="15" y="795" type="curve" smooth="yes"/>
      <point x="9" y="795"/>
      <point x="4" y="796"/>
      <point x="-1" y="799" type="curve" smooth="yes"/>
      <point x="-6" y="802"/>
      <point x="-9" y="806"/>
      <point x="-11" y="812" type="curve"/>
      <point x="-15" y="808" type="line"/>
      <point x="-16" y="806"/>
      <point x="-16" y="803"/>
      <point x="-16" y="799" type="curve" smooth="yes"/>
      <point x="-16" y="791"/>
      <point x="-15" y="785"/>
      <point x="-9" y="776" type="curve" smooth="yes"/>
      <point x="-3" y="768"/>
      <point x="4" y="761"/>
      <point x="5" y="758" type="curve"/>
      <point x="2" y="747"/>
      <point x="-2" y="742"/>
      <point x="-20" y="736" type="curve" smooth="yes"/>
      <point x="-26" y="734"/>
      <point x="-35" y="732"/>
      <point x="-45" y="732" type="curve" smooth="yes"/>
      <point x="-60" y="732"/>
      <point x="-69" y="736"/>
      <point x="-76" y="741" type="curve" smooth="yes"/>
      <point x="-90" y="751"/>
      <point x="-91" y="763"/>
      <point x="-91" y="768" type="curve" smooth="yes"/>
      <point x="-91" y="781"/>
      <point x="-85" y="791"/>
      <point x="-82" y="796" type="curve"/>
      <point x="-86" y="800" type="line"/>
      <point x="-91" y="794"/>
      <point x="-95" y="786"/>
      <point x="-97" y="780" type="curve" smooth="yes"/>
      <point x="-100" y="771"/>
      <point x="-101" y="760"/>
      <point x="-101" y="752" type="curve" smooth="yes"/>
      <point x="-101" y="741"/>
      <point x="-99" y="726"/>
      <point x="-86" y="714" type="curve" smooth="yes"/>
      <point x="-78" y="706"/>
      <point x="-65" y="701"/>
      <point x="-47" y="701" type="curve" smooth="yes"/>
      <point x="-30" y="701"/>
      <point x="-14" y="705"/>
      <point x="-2" y="715" type="curve" smooth="yes"/>
      <point x="7" y="723"/>
      <point x="15" y="736"/>
      <point x="15" y="755" type="curve" smooth="yes"/>
      <point x="15" y="758"/>
      <point x="15" y="762"/>
      <point x="15" y="766" type="curve"/>
      <point x="22" y="766"/>
      <point x="29" y="767"/>
      <point x="34" y="770" type="curve" smooth="yes"/>
      <point x="40" y="773"/>
      <point x="45" y="779"/>
      <point x="46" y="785" type="curve"/>
      <point x="50" y="778"/>
      <point x="48" y="778"/>
      <point x="55" y="773" type="curve" smooth="yes"/>
      <point x="57" y="771"/>
      <point x="64" y="766"/>
      <point x="70" y="766" type="curve" smooth="yes"/>
      <point x="83" y="766"/>
      <point x="93" y="786"/>
      <point x="95" y="793" type="curve" smooth="yes"/>
      <point x="96" y="796"/>
      <point x="96" y="800"/>
      <point x="96" y="802" type="curve" smooth="yes"/>
      <point x="96" y="821"/>
      <point x="94" y="831"/>
      <point x="89" y="836" type="curve"/>
    </contour>
    <contour>
      <point x="0" y="836" type="move" name="top"/>
    </contour>
    <contour>
      <point x="0" y="680" type="move" name="_top"/>
    </contour>
  </outline>
</glyph>
<glyph name="meemStopabove-ar" format="1">
  <advance width="0"/>
  <unicode hex="06E2"/>
  <outline>
    <contour>
      <point x="-78" y="843"/>
      <point x="-73" y="826"/>
      <point x="-68" y="801" type="curve" smooth="yes"/>
      <point x="-62" y="769"/>
      <point x="-53" y="739"/>
      <point x="-55" y="702" type="curve"/>
      <point x="-48" y="705" type="line"/>
      <point x="-38" y="727"/>
      <point x="-38" y="740"/>
      <point x="-36" y="751" type="curve" smooth="yes"/>
      <point x="-33" y="773"/>
      <point x="-38" y="802"/>
      <point x="-44" y="830" type="curve" smooth="yes"/>
      <point x="-48" y="854"/>
      <point x="-53" y="871"/>
      <point x="-50" y="890" type="curve"/>
      <point x="-42" y="906"/>
      <point x="-14" y="910"/>
      <point x="6" y="911" type="curve"/>
      <point x="51" y="911" type="line"/>
      <point x="66" y="912"/>
      <point x="73" y="921"/>
      <point x="73" y="936" type="curve" smooth="yes"/>
      <point x="74" y="968" type="line" smooth="yes"/>
      <point x="74" y="977"/>
      <point x="67" y="985"/>
      <point x="58" y="991" type="curve" smooth="yes"/>
      <point x="47" y="998"/>
      <point x="34" y="1002"/>
      <point x="25" y="1005" type="curve"/>
      <point x="20" y="1006"/>
      <point x="15" y="1007"/>
      <point x="9" y="1007" type="curve" smooth="yes"/>
      <point x="1" y="1007"/>
      <point x="-4" y="1006"/>
      <point x="-8" y="1005" type="curve"/>
      <point x="-19" y="1001"/>
      <point x="-18" y="994"/>
      <point x="-18" y="987" type="curve" smooth="yes"/>
      <point x="-18" y="947" type="line"/>
      <point x="-43" y="941"/>
      <point x="-57" y="918"/>
      <point x="-64" y="900" type="curve" smooth="yes"/>
      <point x="-71" y="885"/>
      <point x="-73" y="873"/>
      <point x="-73" y="873" type="curve"/>
    </contour>
    <contour>
      <point x="11" y="975"/>
      <point x="38" y="970"/>
      <point x="56" y="951" type="curve"/>
      <point x="43" y="954"/>
      <point x="22" y="954"/>
      <point x="7" y="952" type="curve"/>
      <point x="2" y="957"/>
      <point x="-2" y="965"/>
      <point x="-5" y="970" type="curve"/>
    </contour>
    <contour>
      <point x="-1" y="1007" type="move" name="top"/>
    </contour>
    <contour>
      <point x="-1" y="682" type="move" name="_top"/>
    </contour>
  </outline>
</glyph>
<glyph name="fathaCurly-ar" format="1">
  <advance width="0"/>
  <unicode hex="08E4"/>
  <outline>
    <contour>
      <point x="18" y="898" type="line"/>
      <point x="31" y="888"/>
      <point x="37" y="880"/>
      <point x="37" y="872" type="curve" smooth="yes"/>
      <point x="37" y="855"/>
      <point x="10" y="843"/>
      <point x="-16" y="826" type="curve" smooth="yes"/>
      <point x="-41" y="810"/>
      <point x="-65" y="790"/>
      <point x="-65" y="754" type="curve" smooth="yes"/>
      <point x="-65" y="725"/>
      <point x="-50" y="713"/>
      <point x="-26" y="700" type="curve"/>
      <point x="-20" y="716" type="line"/>
      <point x="-34" y="725"/>
      <point x="-40" y="732"/>
      <point x="-40" y="739" type="curve" smooth="yes"/>
      <point x="-40" y="755"/>
      <point x="-11" y="769"/>
      <point x="17" y="789" type="curve" smooth="yes"/>
      <point x="40" y="805"/>
      <point x="63" y="827"/>
      <point x="63" y="859" type="curve" smooth="yes"/>
      <point x="63" y="886"/>
      <point x="47" y="905"/>
      <point x="25" y="914" type="curve"/>
    </contour>
    <contour>
      <point x="0" y="915" type="move" name="top"/>
    </contour>
    <contour>
      <point x="0" y="680" type="move" name="_top"/>
    </contour>
  </outline>
</glyph>
<glyph name="fathaRing-ar" format="1">
  <advance width="0"/>
  <unicode hex="08F4"/>
  <outline>
    <contour>
      <point x="58" y="837"/>
      <point x="29" y="855"/>
      <point x="0" y="855" type="curve" smooth="yes"/>
      <point x="-28" y="855"/>
      <point x="-58" y="837"/>
      <point x="-58" y="795" type="curve" smooth="yes"/>
      <point x="-58" y="782"/>
      <point x="-58" y="767"/>
      <point x="-58" y="757" type="curve" smooth="yes"/>
      <point x="-58" y="718"/>
      <point x="-25" y="700"/>
      <point x="0" y="700" type="curve" smooth="yes"/>
      <point x="25" y="700"/>
      <point x="58" y="718"/>
      <point x="58" y="757" type="curve" smooth="yes"/>
      <point x="58" y="767"/>
      <point x="58" y="782"/>
      <point x="58" y="795" type="curve" smooth="yes"/>
    </contour>
    <contour>
      <point x="-20" y="745"/>
      <point x="-39" y="754"/>
      <point x="-49" y="770" type="curve"/>
      <point x="-49" y="807"/>
      <point x="-26" y="822"/>
      <point x="0" y="822" type="curve" smooth="yes"/>
      <point x="26" y="822"/>
      <point x="49" y="807"/>
      <point x="49" y="770" type="curve"/>
      <point x="39" y="754"/>
      <point x="20" y="745"/>
      <point x="0" y="745" type="curve" smooth="yes"/>
    </contour>
    <contour>
      <point x="-87" y="736" type="line"/>
      <point x="68" y="794" type="line"/>
      <point x="86" y="834" type="line" smooth="yes"/>
      <point x="-75" y="771" type="line"/>
    </contour>
    <contour>
      <point x="0" y="855" type="move" name="top"/>
    </contour>
    <contour>
      <point x="0" y="680" type="move" name="_top"/>
    </contour>
  </outline>
</glyph>
<glyph name="fathaDotabove-ar" format="1">
  <advance width="0"/>
  <unicode hex="08F5"/>
  <outline>
    <contour>
      <point x="-88" y="705" type="line"/>
      <point x="-81" y="700" type="line"/>
      <point x="59" y="755" type="line"/>
      <point x="85" y="805" type="line"/>
      <point x="-60" y="748" type="line"/>
    </contour>
    <contour>
      <point x="-28" y="834"/>
      <point x="-15" y="823"/>
      <point x="0" y="805" type="curve"/>
      <point x="21" y="825"/>
      <point x="29" y="835"/>
      <point x="38" y="847" type="curve"/>
      <point x="29" y="860"/>
      <point x="9" y="877"/>
      <point x="-7" y="886" type="curve"/>
      <point x="-15" y="875"/>
      <point x="-32" y="854"/>
      <point x="-43" y="843" type="curve"/>
    </contour>
    <contour>
      <point x="-2" y="886" type="move" name="top"/>
    </contour>
    <contour>
      <point x="-2" y="680" type="move" name="_top"/>
    </contour>
  </outline>
</glyph>
<glyph name="whiteSquare" format="1">
  <advance width="313"/>
  <unicode hex="25A1"/>
  <outline>
    <contour>
      <point x="283" y="303" type="line"/>
      <point x="30" y="303" type="line"/>
      <point x="30" y="50" type="line"/>
      <point x="283" y="50" type="line"/>
    </contour>
    <contour>
      <point x="86" y="248" type="line"/>
      <point x="228" y="248" type="line"/>
      <point x="228" y="106" type="line"/>
      <point x="86" y="106" type="line"/>
    </contour>
  </outline>
</glyph>
<glyph name="whiteRoundedCornersSquare" format="1">
  <advance width="313"/>
  <unicode hex="25A2"/>
  <outline>
    <contour>
      <point x="30" y="18"/>
      <point x="48" y="0"/>
      <point x="69" y="0" type="curve" smooth="yes"/>
      <point x="244" y="0" type="line" smooth="yes"/>
      <point x="266" y="0"/>
      <point x="283" y="18"/>
      <point x="283" y="39" type="curve" smooth="yes"/>
      <point x="283" y="214" type="line" smooth="yes"/>
      <point x="283" y="235"/>
      <point x="266" y="253"/>
      <point x="244" y="253" type="curve" smooth="yes"/>
      <point x="69" y="253" type="line" smooth="yes"/>
      <point x="48" y="253"/>
      <point x="30" y="235"/>
      <point x="30" y="214" type="curve" smooth="yes"/>
      <point x="30" y="39" type="line" smooth="yes"/>
    </contour>
    <contour>
      <point x="86" y="185" type="line" smooth="yes"/>
      <point x="86" y="192"/>
      <point x="92" y="198"/>
      <point x="99" y="198" type="curve" smooth="yes"/>
      <point x="215" y="198" type="line" smooth="yes"/>
      <point x="222" y="198"/>
      <point x="228" y="192"/>
      <point x="228" y="185" type="curve" smooth="yes"/>
      <point x="228" y="69" type="line" smooth="yes"/>
      <point x="228" y="62"/>
      <point x="222" y="56"/>
      <point x="215" y="56" type="curve" smooth="yes"/>
      <point x="99" y="56" type="line" smooth="yes"/>
      <point x="92" y="56"/>
      <point x="86" y="62"/>
      <point x="86" y="69" type="curve" smooth="yes"/>
    </contour>
  </outline>
</glyph>
<glyph name="blackInWhiteDiamond" format="1">
  <advance width="417"/>
  <unicode hex="25C8"/>
  <outline>
    <contour>
      <point x="387" y="53" type="line"/>
      <point x="208" y="231" type="line"/>
      <point x="30" y="52" type="line"/>
      <point x="209" y="-127" type="line"/>
    </contour>
    <contour>
      <point x="208" y="172" type="line"/>
      <point x="328" y="53" type="line"/>
      <point x="209" y="-67" type="line"/>
      <point x="89" y="52" type="line"/>
    </contour>
    <contour>
      <point x="282" y="53" type="line"/>
      <point x="208" y="126" type="line"/>
      <point x="135" y="52" type="line"/>
      <point x="209" y="-22" type="line"/>
    </contour>
  </outline>
</glyph>
<glyph name="hehDoachashmee-ar.medi" format="1">
  <advance width="499"/>
  <unicode hex="FBAD"/>
  <outline>
    <contour>
      <point x="-70" y="24"/>
      <point x="-46" y="0"/>
      <point x="-17" y="0" type="curve" smooth="yes"/>
      <point x="8" y="0" type="line" smooth="yes"/>
      <point x="48" y="0"/>
      <point x="83" y="1"/>
      <point x="114" y="9" type="curve" smooth="yes"/>
      <point x="141" y="16"/>
      <point x="164" y="27"/>
      <point x="186" y="46" type="curve"/>
      <point x="208" y="39"/>
      <point x="247" y="17"/>
      <point x="291" y="-10" type="curve"/>
      <point x="310" y="-10"/>
      <point x="326" y="1"/>
      <point x="338" y="16" type="curve"/>
      <point x="348" y="27"/>
      <point x="355" y="41"/>
      <point x="360" y="52" type="curve"/>
      <point x="367" y="40"/>
      <point x="376" y="29"/>
      <point x="385" y="21" type="curve"/>
      <point x="401" y="8"/>
      <point x="423" y="0"/>
      <point x="452" y="0" type="curve" smooth="yes"/>
      <point x="499" y="0" type="line"/>
      <point x="499" y="106" type="line"/>
      <point x="425" y="106" type="line" smooth="yes"/>
      <point x="390" y="106"/>
      <point x="377" y="114"/>
      <point x="374" y="135" type="curve"/>
      <point x="373" y="167"/>
      <point x="366" y="193"/>
      <point x="356" y="214" type="curve" smooth="yes"/>
      <point x="333" y="262"/>
      <point x="292" y="286"/>
      <point x="264" y="306" type="curve" smooth="yes"/>
      <point x="237" y="325"/>
      <point x="144" y="368"/>
      <point x="134" y="393" type="curve"/>
      <point x="134" y="344" type="line" smooth="yes"/>
      <point x="134" y="329"/>
      <point x="132" y="317"/>
      <point x="143" y="303" type="curve"/>
      <point x="87" y="280"/>
      <point x="58" y="222"/>
      <point x="58" y="178" type="curve" smooth="yes"/>
      <point x="58" y="154"/>
      <point x="66" y="131"/>
      <point x="83" y="112" type="curve"/>
      <point x="69" y="108"/>
      <point x="51" y="106"/>
      <point x="33" y="106" type="curve" smooth="yes"/>
      <point x="-17" y="106" type="line" smooth="yes"/>
      <point x="-46" y="106"/>
      <point x="-70" y="81"/>
      <point x="-70" y="53" type="curve" smooth="yes"/>
    </contour>
    <contour>
      <point x="108" y="232"/>
      <point x="129" y="248"/>
      <point x="152" y="248" type="curve" smooth="yes"/>
      <point x="175" y="248"/>
      <point x="205" y="230"/>
      <point x="211" y="196" type="curve"/>
      <point x="201" y="179"/>
      <point x="187" y="164"/>
      <point x="171" y="152" type="curve"/>
      <point x="121" y="175"/>
      <point x="101" y="188"/>
      <point x="94" y="209" type="curve"/>
    </contour>
    <contour>
      <point x="255" y="151"/>
      <point x="258" y="181"/>
      <point x="238" y="232" type="curve"/>
      <point x="245" y="226"/>
      <point x="270" y="211"/>
      <point x="294" y="187" type="curve" smooth="yes"/>
      <point x="310" y="171"/>
      <point x="326" y="151"/>
      <point x="334" y="128" type="curve"/>
      <point x="329" y="87"/>
      <point x="301" y="84"/>
      <point x="301" y="84" type="curve"/>
      <point x="275" y="96"/>
      <point x="268" y="100"/>
      <point x="234" y="119" type="curve"/>
    </contour>
    <contour>
      <point x="164" y="423" type="move" name="top"/>
    </contour>
    <contour>
      <point x="187" y="-44" type="move" name="bottom"/>
    </contour>
  </outline>
</glyph>
<glyph name="threedotsupbelow-ar" format="1">
  <advance width="0"/>
  <unicode hex="FBB7"/>
  <outline>
    <contour>
      <point x="-86" y="-267"/>
      <point x="-67" y="-284"/>
      <point x="-43" y="-309" type="curve"/>
      <point x="-23" y="-289"/>
      <point x="-11" y="-276"/>
      <point x="-1" y="-263" type="curve"/>
      <point x="15" y="-274"/>
      <point x="31" y="-289"/>
      <point x="50" y="-309" type="curve"/>
      <point x="78" y="-282"/>
      <point x="90" y="-266"/>
      <point x="103" y="-248" type="curve"/>
      <point x="91" y="-229"/>
      <point x="62" y="-205"/>
      <point x="39" y="-193" type="curve"/>
      <point x="2" y="-237" type="line"/>
      <point x="-12" y="-221"/>
      <point x="-35" y="-203"/>
      <point x="-54" y="-193" type="curve"/>
      <point x="-67" y="-209"/>
      <point x="-92" y="-238"/>
      <point x="-107" y="-255" type="curve"/>
    </contour>
    <contour>
      <point x="-42" y="-160"/>
      <point x="-23" y="-176"/>
      <point x="1" y="-201" type="curve"/>
      <point x="29" y="-174"/>
      <point x="41" y="-158"/>
      <point x="54" y="-140" type="curve"/>
      <point x="42" y="-122"/>
      <point x="13" y="-97"/>
      <point x="-10" y="-85" type="curve"/>
      <point x="-23" y="-102"/>
      <point x="-48" y="-131"/>
      <point x="-63" y="-147" type="curve"/>
    </contour>
    <contour>
      <point x="-2" y="-65" type="move" name="_bottom"/>
    </contour>
    <contour>
      <point x="-2" y="-329" type="move" name="bottom"/>
    </contour>
  </outline>
</glyph>
<glyph name="sad_meem-ar" format="1">
  <advance width="897"/>
  <unicode hex="FC21"/>
  <outline>
    <contour>
      <point x="772" y="271"/>
      <point x="742" y="283"/>
      <point x="702" y="283" type="curve" smooth="yes"/>
      <point x="649" y="283"/>
      <point x="594" y="247"/>
      <point x="550" y="204" type="curve" smooth="yes"/>
      <point x="518" y="173"/>
      <point x="491" y="137"/>
      <point x="473" y="108" type="curve"/>
      <point x="433" y="116"/>
      <point x="419" y="150"/>
      <point x="401" y="179" type="curve"/>
      <point x="388" y="202"/>
      <point x="372" y="221"/>
      <point x="340" y="221" type="curve" smooth="yes"/>
      <point x="313" y="221"/>
      <point x="287" y="206"/>
      <point x="265" y="183" type="curve" smooth="yes"/>
      <point x="241" y="159"/>
      <point x="222" y="125"/>
      <point x="212" y="89" type="curve" smooth="yes"/>
      <point x="207" y="69"/>
      <point x="204" y="48"/>
      <point x="205" y="28" type="curve"/>
      <point x="166" y="17"/>
      <point x="138" y="-11"/>
      <point x="118" y="-42" type="curve" smooth="yes"/>
      <point x="83" y="-96"/>
      <point x="74" y="-151"/>
      <point x="73" y="-158" type="curve" smooth="yes"/>
      <point x="66" y="-205"/>
      <point x="76" y="-257"/>
      <point x="88" y="-313" type="curve" smooth="yes"/>
      <point x="103" y="-380"/>
      <point x="121" y="-463"/>
      <point x="116" y="-541" type="curve"/>
      <point x="133" y="-533" type="line"/>
      <point x="160" y="-479"/>
      <point x="163" y="-435"/>
      <point x="166" y="-407" type="curve" smooth="yes"/>
      <point x="170" y="-364"/>
      <point x="164" y="-319"/>
      <point x="156" y="-277" type="curve" smooth="yes"/>
      <point x="143" y="-213"/>
      <point x="125" y="-155"/>
      <point x="130" y="-114" type="curve"/>
      <point x="147" y="-83"/>
      <point x="190" y="-63"/>
      <point x="237" y="-63" type="curve" smooth="yes"/>
      <point x="278" y="-63"/>
      <point x="319" y="-80"/>
      <point x="348" y="-102" type="curve"/>
      <point x="366" y="9" type="line"/>
      <point x="350" y="41"/>
      <point x="316" y="66"/>
      <point x="271" y="85" type="curve"/>
      <point x="288" y="108"/>
      <point x="310" y="126"/>
      <point x="330" y="126" type="curve"/>
      <point x="380" y="126"/>
      <point x="391" y="83"/>
      <point x="425" y="45" type="curve" smooth="yes"/>
      <point x="452" y="16"/>
      <point x="491" y="-10"/>
      <point x="573" y="-10" type="curve" smooth="yes"/>
      <point x="660" y="-10"/>
      <point x="724" y="18"/>
      <point x="765" y="53" type="curve" smooth="yes"/>
      <point x="805" y="87"/>
      <point x="821" y="119"/>
      <point x="837" y="176" type="curve"/>
      <point x="826" y="206"/>
      <point x="813" y="231"/>
      <point x="795" y="249" type="curve" smooth="yes"/>
    </contour>
    <contour>
      <point x="684" y="108"/>
      <point x="649" y="102"/>
      <point x="600" y="102" type="curve" smooth="yes"/>
      <point x="516" y="102" type="line" smooth="yes"/>
      <point x="516" y="102"/>
      <point x="533" y="132"/>
      <point x="565" y="156" type="curve"/>
      <point x="592" y="178"/>
      <point x="631" y="199"/>
      <point x="678" y="199" type="curve" smooth="yes"/>
      <point x="705" y="199"/>
      <point x="724" y="190"/>
      <point x="738" y="179" type="curve" smooth="yes"/>
      <point x="757" y="165"/>
      <point x="764" y="147"/>
      <point x="764" y="147" type="curve"/>
      <point x="761" y="144"/>
      <point x="749" y="127"/>
      <point x="708" y="115" type="curve" smooth="yes"/>
    </contour>
    <contour>
      <point x="449" y="0" type="move" name="caret_1"/>
    </contour>
    <contour>
      <point x="577" y="-44" type="move" name="bottom_1"/>
    </contour>
    <contour>
      <point x="682" y="313" type="move" name="top_1"/>
    </contour>
    <contour>
      <point x="303" y="247" type="move" name="top_2"/>
    </contour>
    <contour>
      <point x="124" y="-567" type="move" name="bottom_2"/>
    </contour>
  </outline>
</glyph>
<glyph name="kaf_alefMaksura-ar" format="1">
  <advance width="683"/>
  <unicode hex="FC3D"/>
  <outline>
    <contour>
      <point x="70" y="-51"/>
      <point x="78" y="-112"/>
      <point x="119" y="-159" type="curve" smooth="yes"/>
      <point x="148" y="-193"/>
      <point x="201" y="-219"/>
      <point x="271" y="-219" type="curve" smooth="yes"/>
      <point x="320" y="-219"/>
      <point x="377" y="-209"/>
      <point x="427" y="-190" type="curve" smooth="yes"/>
      <point x="483" y="-168"/>
      <point x="531" y="-134"/>
      <point x="545" y="-89" type="curve" smooth="yes"/>
      <point x="553" y="-63"/>
      <point x="555" y="-46"/>
      <point x="559" y="-25" type="curve" smooth="yes"/>
      <point x="566" y="9"/>
      <point x="524" y="42"/>
      <point x="479" y="58" type="curve"/>
      <point x="530" y="88"/>
      <point x="539" y="123"/>
      <point x="539" y="170" type="curve" smooth="yes"/>
      <point x="539" y="211"/>
      <point x="513" y="263"/>
      <point x="480" y="309" type="curve" smooth="yes"/>
      <point x="448" y="354"/>
      <point x="410" y="394"/>
      <point x="384" y="414" type="curve"/>
      <point x="398" y="424"/>
      <point x="454" y="449"/>
      <point x="512" y="475" type="curve" smooth="yes"/>
      <point x="566" y="500"/>
      <point x="621" y="526"/>
      <point x="648" y="544" type="curve"/>
      <point x="673" y="657" type="line"/>
      <point x="627" y="628"/>
      <point x="608" y="617"/>
      <point x="532" y="580" type="curve" smooth="yes"/>
      <point x="491" y="560"/>
      <point x="446" y="538"/>
      <point x="403" y="514" type="curve" smooth="yes"/>
      <point x="372" y="496"/>
      <point x="333" y="473"/>
      <point x="328" y="435" type="curve" smooth="yes"/>
      <point x="325" y="415"/>
      <point x="325" y="397"/>
      <point x="325" y="365" type="curve" smooth="yes"/>
      <point x="325" y="305"/>
      <point x="331" y="289"/>
      <point x="375" y="255" type="curve"/>
      <point x="375" y="289" type="line"/>
      <point x="394" y="275"/>
      <point x="415" y="253"/>
      <point x="435" y="228" type="curve" smooth="yes"/>
      <point x="455" y="202"/>
      <point x="473" y="173"/>
      <point x="485" y="147" type="curve"/>
      <point x="460" y="116"/>
      <point x="409" y="110"/>
      <point x="364" y="105" type="curve"/>
      <point x="338" y="21" type="line"/>
      <point x="349" y="0" type="line"/>
      <point x="412" y="-3"/>
      <point x="495" y="-10"/>
      <point x="492" y="-51" type="curve"/>
      <point x="468" y="-74"/>
      <point x="424" y="-90"/>
      <point x="374" y="-98" type="curve" smooth="yes"/>
      <point x="346" y="-103"/>
      <point x="316" y="-105"/>
      <point x="287" y="-105" type="curve" smooth="yes"/>
      <point x="229" y="-105"/>
      <point x="190" y="-91"/>
      <point x="163" y="-72" type="curve" smooth="yes"/>
      <point x="121" y="-42"/>
      <point x="109" y="-3"/>
      <point x="109" y="34" type="curve"/>
      <point x="111" y="82"/>
      <point x="134" y="124"/>
      <point x="143" y="134" type="curve"/>
      <point x="127" y="150" type="line"/>
      <point x="107" y="126"/>
      <point x="95" y="102"/>
      <point x="87" y="76" type="curve" smooth="yes"/>
      <point x="70" y="26"/>
      <point x="70" y="-20"/>
      <point x="70" y="-33" type="curve" smooth="yes"/>
    </contour>
    <contour>
      <point x="327" y="0" type="move" name="caret_1"/>
    </contour>
    <contour>
      <point x="525" y="-200" type="move" name="bottom_1"/>
    </contour>
    <contour>
      <point x="400" y="590" type="move" name="top_1"/>
    </contour>
    <contour>
      <point x="261" y="81" type="move" name="top_2"/>
    </contour>
    <contour>
      <point x="281" y="-249" type="move" name="bottom_2"/>
    </contour>
  </outline>
</glyph>
<glyph name="meem_alefMaksura-ar" format="1">
  <advance width="794"/>
  <unicode hex="FC49"/>
  <outline>
    <contour>
      <point x="70" y="-51"/>
      <point x="78" y="-112"/>
      <point x="119" y="-159" type="curve" smooth="yes"/>
      <point x="148" y="-193"/>
      <point x="201" y="-219"/>
      <point x="271" y="-219" type="curve" smooth="yes"/>
      <point x="320" y="-219"/>
      <point x="377" y="-209"/>
      <point x="427" y="-190" type="curve" smooth="yes"/>
      <point x="483" y="-168"/>
      <point x="531" y="-134"/>
      <point x="545" y="-89" type="curve" smooth="yes"/>
      <point x="553" y="-63"/>
      <point x="555" y="-46"/>
      <point x="559" y="-25" type="curve" smooth="yes"/>
      <point x="567" y="13"/>
      <point x="520" y="60"/>
      <point x="434" y="74" type="curve"/>
      <point x="452" y="103"/>
      <point x="490" y="121"/>
      <point x="528" y="132" type="curve" smooth="yes"/>
      <point x="557" y="140"/>
      <point x="586" y="144"/>
      <point x="606" y="144" type="curve" smooth="yes"/>
      <point x="698" y="144"/>
      <point x="732" y="158"/>
      <point x="733" y="220" type="curve" smooth="yes"/>
      <point x="734" y="284" type="line" smooth="yes"/>
      <point x="735" y="325"/>
      <point x="688" y="335"/>
      <point x="642" y="343" type="curve" smooth="yes"/>
      <point x="602" y="349"/>
      <point x="562" y="353"/>
      <point x="554" y="373" type="curve"/>
      <point x="554" y="274" type="line" smooth="yes"/>
      <point x="554" y="232"/>
      <point x="572" y="223"/>
      <point x="571" y="223" type="curve"/>
      <point x="537" y="216"/>
      <point x="502" y="203"/>
      <point x="468" y="185" type="curve" smooth="yes"/>
      <point x="431" y="165"/>
      <point x="396" y="138"/>
      <point x="367" y="105" type="curve"/>
      <point x="338" y="21" type="line"/>
      <point x="349" y="0" type="line"/>
      <point x="412" y="-3"/>
      <point x="495" y="-10"/>
      <point x="492" y="-51" type="curve"/>
      <point x="468" y="-74"/>
      <point x="424" y="-90"/>
      <point x="374" y="-98" type="curve" smooth="yes"/>
      <point x="346" y="-103"/>
      <point x="316" y="-105"/>
      <point x="287" y="-105" type="curve" smooth="yes"/>
      <point x="229" y="-105"/>
      <point x="190" y="-91"/>
      <point x="163" y="-72" type="curve" smooth="yes"/>
      <point x="121" y="-42"/>
      <point x="109" y="-3"/>
      <point x="109" y="34" type="curve"/>
      <point x="111" y="82"/>
      <point x="134" y="124"/>
      <point x="143" y="134" type="curve"/>
      <point x="127" y="150" type="line"/>
      <point x="107" y="126"/>
      <point x="95" y="102"/>
      <point x="87" y="76" type="curve" smooth="yes"/>
      <point x="70" y="26"/>
      <point x="70" y="-20"/>
      <point x="70" y="-33" type="curve" smooth="yes"/>
    </contour>
    <contour>
      <point x="397" y="0" type="move" name="caret_1"/>
    </contour>
    <contour>
      <point x="589" y="-159" type="move" name="bottom_1"/>
    </contour>
    <contour>
      <point x="637" y="410" type="move" name="top_1"/>
    </contour>
    <contour>
      <point x="272" y="118" type="move" name="top_2"/>
    </contour>
    <contour>
      <point x="281" y="-249" type="move" name="bottom_2"/>
    </contour>
  </outline>
</glyph>
<glyph name="kaf_lam-ar.init" format="1">
  <advance width="541"/>
  <unicode hex="FCC7"/>
  <outline>
    <contour>
      <point x="-70" y="24"/>
      <point x="-46" y="0"/>
      <point x="-17" y="0" type="curve" smooth="yes"/>
      <point x="32" y="0" type="line" smooth="yes"/>
      <point x="118" y="0"/>
      <point x="134" y="58"/>
      <point x="137" y="70" type="curve"/>
      <point x="147" y="33"/>
      <point x="180" y="0"/>
      <point x="243" y="0" type="curve" smooth="yes"/>
      <point x="310" y="0"/>
      <point x="355" y="20"/>
      <point x="378" y="55" type="curve" smooth="yes"/>
      <point x="398" y="84"/>
      <point x="407" y="123"/>
      <point x="407" y="170" type="curve" smooth="yes"/>
      <point x="407" y="220"/>
      <point x="380" y="276"/>
      <point x="340" y="323" type="curve" smooth="yes"/>
      <point x="311" y="358"/>
      <point x="274" y="389"/>
      <point x="236" y="409" type="curve"/>
      <point x="250" y="419"/>
      <point x="312" y="449"/>
      <point x="370" y="475" type="curve" smooth="yes"/>
      <point x="424" y="500"/>
      <point x="479" y="526"/>
      <point x="506" y="544" type="curve"/>
      <point x="531" y="657" type="line"/>
      <point x="485" y="628"/>
      <point x="466" y="617"/>
      <point x="390" y="580" type="curve" smooth="yes"/>
      <point x="349" y="560"/>
      <point x="304" y="538"/>
      <point x="261" y="514" type="curve" smooth="yes"/>
      <point x="237" y="500"/>
      <point x="174" y="465"/>
      <point x="146" y="432" type="curve"/>
      <point x="116" y="681" type="line"/>
      <point x="53" y="607" type="line"/>
      <point x="104" y="177" type="line" smooth="yes"/>
      <point x="106" y="162"/>
      <point x="105" y="141"/>
      <point x="94" y="126" type="curve" smooth="yes"/>
      <point x="85" y="114"/>
      <point x="70" y="106"/>
      <point x="43" y="106" type="curve" smooth="yes"/>
      <point x="-17" y="106" type="line" smooth="yes"/>
      <point x="-46" y="106"/>
      <point x="-70" y="82"/>
      <point x="-70" y="53" type="curve" smooth="yes"/>
    </contour>
    <contour>
      <point x="199" y="323"/>
      <point x="241" y="297"/>
      <point x="275" y="265" type="curve" smooth="yes"/>
      <point x="310" y="232"/>
      <point x="337" y="192"/>
      <point x="349" y="151" type="curve"/>
      <point x="330" y="125"/>
      <point x="307" y="106"/>
      <point x="251" y="106" type="curve"/>
      <point x="228" y="106"/>
      <point x="213" y="117"/>
      <point x="201" y="134" type="curve" smooth="yes"/>
      <point x="186" y="155"/>
      <point x="176" y="190"/>
      <point x="169" y="245" type="curve" smooth="yes"/>
      <point x="157" y="338" type="line"/>
    </contour>
    <contour>
      <point x="266" y="0" type="move" name="caret_1"/>
    </contour>
    <contour>
      <point x="268" y="-34" type="move" name="bottom_1"/>
    </contour>
    <contour>
      <point x="353" y="626" type="move" name="top_1"/>
    </contour>
    <contour>
      <point x="22" y="671" type="move" name="top_2"/>
    </contour>
    <contour>
      <point x="42" y="-34" type="move" name="bottom_2"/>
    </contour>
  </outline>
</glyph>
<glyph name="seen_reh-ar" format="1">
  <advance width="756"/>
  <unicode hex="FD0E"/>
  <outline>
    <contour>
      <point x="695" y="206"/>
      <point x="685" y="249"/>
      <point x="666" y="267" type="curve"/>
      <point x="613" y="198" type="line"/>
      <point x="622" y="171"/>
      <point x="631" y="139"/>
      <point x="630" y="115" type="curve"/>
      <point x="630" y="115"/>
      <point x="586" y="110"/>
      <point x="558" y="125" type="curve" smooth="yes"/>
      <point x="522" y="145"/>
      <point x="517" y="185"/>
      <point x="516" y="207" type="curve"/>
      <point x="501" y="214" type="line"/>
      <point x="499" y="186"/>
      <point x="493" y="161"/>
      <point x="475" y="140" type="curve" smooth="yes"/>
      <point x="461" y="124"/>
      <point x="439" y="111"/>
      <point x="405" y="111" type="curve" smooth="yes"/>
      <point x="379" y="111"/>
      <point x="360" y="115"/>
      <point x="348" y="126" type="curve" smooth="yes"/>
      <point x="339" y="134"/>
      <point x="334" y="145"/>
      <point x="331" y="159" type="curve"/>
      <point x="275" y="153"/>
      <point x="213" y="140"/>
      <point x="150" y="122" type="curve"/>
      <point x="150" y="42" type="line" smooth="yes"/>
      <point x="150" y="-11"/>
      <point x="129" y="-45"/>
      <point x="81" y="-72" type="curve" smooth="yes"/>
      <point x="37" y="-98"/>
      <point x="-37" y="-100"/>
      <point x="-70" y="-101" type="curve"/>
      <point x="-70" y="-206" type="line"/>
      <point x="-25" y="-203"/>
      <point x="-6" y="-237"/>
      <point x="1" y="-257" type="curve"/>
      <point x="4" y="-257" type="line"/>
      <point x="4" y="-200" type="line"/>
      <point x="19" y="-200"/>
      <point x="82" y="-195"/>
      <point x="122" y="-167" type="curve" smooth="yes"/>
      <point x="156" y="-144"/>
      <point x="183" y="-110"/>
      <point x="198" y="-69" type="curve" smooth="yes"/>
      <point x="209" y="-37"/>
      <point x="214" y="8"/>
      <point x="210" y="45" type="curve"/>
      <point x="246" y="54"/>
      <point x="267" y="59"/>
      <point x="309" y="68" type="curve"/>
      <point x="314" y="50"/>
      <point x="322" y="36"/>
      <point x="333" y="27" type="curve" smooth="yes"/>
      <point x="349" y="12"/>
      <point x="372" y="5"/>
      <point x="401" y="5" type="curve" smooth="yes"/>
      <point x="429" y="5"/>
      <point x="454" y="12"/>
      <point x="472" y="24" type="curve" smooth="yes"/>
      <point x="491" y="37"/>
      <point x="503" y="54"/>
      <point x="508" y="75" type="curve"/>
      <point x="515" y="60"/>
      <point x="525" y="41"/>
      <point x="544" y="26" type="curve"/>
      <point x="559" y="15"/>
      <point x="581" y="6"/>
      <point x="612" y="6" type="curve" smooth="yes"/>
      <point x="626" y="6"/>
      <point x="643" y="25"/>
      <point x="658" y="47" type="curve" smooth="yes"/>
      <point x="674" y="69"/>
      <point x="687" y="94"/>
      <point x="689" y="101" type="curve" smooth="yes"/>
      <point x="694" y="119"/>
      <point x="697" y="141"/>
      <point x="696" y="164" type="curve" smooth="yes"/>
    </contour>
    <contour>
      <point x="378" y="0" type="move" name="caret_1"/>
    </contour>
    <contour>
      <point x="493" y="-34" type="move" name="bottom_1"/>
    </contour>
    <contour>
      <point x="501" y="234" type="move" name="top_1"/>
    </contour>
    <contour>
      <point x="150" y="162" type="move" name="top_2"/>
    </contour>
    <contour>
      <point x="24" y="-277" type="move" name="bottom_2"/>
    </contour>
  </outline>
</glyph>
<glyph name="sad_reh-ar" format="1">
  <advance width="822"/>
  <unicode hex="FD0F"/>
  <outline>
    <contour>
      <point x="-25" y="-203"/>
      <point x="-6" y="-237"/>
      <point x="1" y="-257" type="curve"/>
      <point x="4" y="-257" type="line"/>
      <point x="4" y="-200" type="line"/>
      <point x="19" y="-200"/>
      <point x="82" y="-195"/>
      <point x="122" y="-167" type="curve" smooth="yes"/>
      <point x="156" y="-144"/>
      <point x="183" y="-110"/>
      <point x="198" y="-69" type="curve" smooth="yes"/>
      <point x="209" y="-37"/>
      <point x="214" y="8"/>
      <point x="210" y="45" type="curve"/>
      <point x="247" y="52"/>
      <point x="274" y="57"/>
      <point x="312" y="65" type="curve"/>
      <point x="315" y="45"/>
      <point x="330" y="24"/>
      <point x="351" y="12" type="curve"/>
      <point x="348" y="4"/>
      <point x="338" y="-17"/>
      <point x="338" y="-17" type="curve"/>
      <point x="358" y="-39" type="line"/>
      <point x="381" y="0" type="line"/>
      <point x="425" y="-6"/>
      <point x="463" y="-10"/>
      <point x="497" y="-10" type="curve" smooth="yes"/>
      <point x="576" y="-10"/>
      <point x="644" y="10"/>
      <point x="692" y="54" type="curve" smooth="yes"/>
      <point x="725" y="84"/>
      <point x="749" y="124"/>
      <point x="762" y="176" type="curve"/>
      <point x="752" y="202"/>
      <point x="741" y="223"/>
      <point x="727" y="240" type="curve" smooth="yes"/>
      <point x="704" y="268"/>
      <point x="672" y="283"/>
      <point x="626" y="283" type="curve" smooth="yes"/>
      <point x="581" y="283"/>
      <point x="535" y="257"/>
      <point x="495" y="222" type="curve" smooth="yes"/>
      <point x="453" y="186"/>
      <point x="417" y="141"/>
      <point x="396" y="106" type="curve"/>
      <point x="373" y="106"/>
      <point x="353" y="107"/>
      <point x="342" y="118" type="curve" smooth="yes"/>
      <point x="334" y="126"/>
      <point x="330" y="138"/>
      <point x="331" y="157" type="curve"/>
      <point x="264" y="149"/>
      <point x="210" y="138"/>
      <point x="150" y="122" type="curve"/>
      <point x="150" y="42" type="line"/>
      <point x="150" y="-11"/>
      <point x="129" y="-45"/>
      <point x="81" y="-72" type="curve" smooth="yes"/>
      <point x="37" y="-98"/>
      <point x="-37" y="-100"/>
      <point x="-70" y="-101" type="curve"/>
      <point x="-70" y="-206" type="line"/>
    </contour>
    <contour>
      <point x="440" y="102"/>
      <point x="459" y="133"/>
      <point x="494" y="159" type="curve" smooth="yes"/>
      <point x="521" y="180"/>
      <point x="558" y="199"/>
      <point x="602" y="199" type="curve" smooth="yes"/>
      <point x="626" y="199"/>
      <point x="644" y="192"/>
      <point x="658" y="183" type="curve"/>
      <point x="680" y="167"/>
      <point x="689" y="147"/>
      <point x="689" y="147" type="curve"/>
      <point x="686" y="143"/>
      <point x="658" y="102"/>
      <point x="524" y="102" type="curve" smooth="yes"/>
      <point x="440" y="102" type="line" smooth="yes"/>
    </contour>
    <contour>
      <point x="411" y="0" type="move" name="caret_1"/>
    </contour>
    <contour>
      <point x="497" y="-55" type="move" name="bottom_1"/>
    </contour>
    <contour>
      <point x="606" y="300" type="move" name="top_1"/>
    </contour>
    <contour>
      <point x="150" y="162" type="move" name="top_2"/>
    </contour>
    <contour>
      <point x="24" y="-277" type="move" name="bottom_2"/>
    </contour>
  </outline>
</glyph>
<glyph name="ain_alefMaksura-ar.fina" format="1">
  <advance width="817"/>
  <unicode hex="FD13"/>
  <outline>
    <contour>
      <point x="677" y="106"/>
      <point x="667" y="106"/>
      <point x="654" y="111" type="curve"/>
      <point x="675" y="130"/>
      <point x="681" y="136"/>
      <point x="700" y="152" type="curve"/>
      <point x="714" y="239" type="line"/>
      <point x="684" y="263"/>
      <point x="630" y="285"/>
      <point x="566" y="285" type="curve" smooth="yes"/>
      <point x="515" y="285"/>
      <point x="468" y="270"/>
      <point x="429" y="239" type="curve"/>
      <point x="416" y="168" type="line"/>
      <point x="438" y="176"/>
      <point x="462" y="174"/>
      <point x="484" y="163" type="curve" smooth="yes"/>
      <point x="507" y="152"/>
      <point x="521" y="137"/>
      <point x="531" y="120" type="curve"/>
      <point x="506" y="108"/>
      <point x="477" y="99"/>
      <point x="448" y="92" type="curve" smooth="yes"/>
      <point x="419" y="85"/>
      <point x="390" y="80"/>
      <point x="364" y="75" type="curve"/>
      <point x="338" y="-9" type="line"/>
      <point x="349" y="-30" type="line"/>
      <point x="412" y="-33"/>
      <point x="495" y="-40"/>
      <point x="492" y="-81" type="curve"/>
      <point x="468" y="-104"/>
      <point x="424" y="-120"/>
      <point x="374" y="-128" type="curve" smooth="yes"/>
      <point x="346" y="-133"/>
      <point x="316" y="-135"/>
      <point x="287" y="-135" type="curve" smooth="yes"/>
      <point x="229" y="-135"/>
      <point x="190" y="-121"/>
      <point x="163" y="-102" type="curve" smooth="yes"/>
      <point x="121" y="-72"/>
      <point x="109" y="-33"/>
      <point x="109" y="4" type="curve"/>
      <point x="111" y="52"/>
      <point x="134" y="94"/>
      <point x="143" y="104" type="curve"/>
      <point x="127" y="120" type="line"/>
      <point x="107" y="96"/>
      <point x="95" y="72"/>
      <point x="87" y="46" type="curve" smooth="yes"/>
      <point x="70" y="-4"/>
      <point x="70" y="-50"/>
      <point x="70" y="-63" type="curve" smooth="yes"/>
      <point x="70" y="-81"/>
      <point x="78" y="-142"/>
      <point x="119" y="-189" type="curve" smooth="yes"/>
      <point x="148" y="-223"/>
      <point x="201" y="-249"/>
      <point x="271" y="-249" type="curve" smooth="yes"/>
      <point x="320" y="-249"/>
      <point x="377" y="-239"/>
      <point x="427" y="-220" type="curve" smooth="yes"/>
      <point x="483" y="-198"/>
      <point x="533" y="-165"/>
      <point x="545" y="-119" type="curve" smooth="yes"/>
      <point x="552" y="-91"/>
      <point x="554" y="-79"/>
      <point x="558" y="-58" type="curve" smooth="yes"/>
      <point x="565" y="-23"/>
      <point x="522" y="10"/>
      <point x="476" y="26" type="curve"/>
      <point x="502" y="32"/>
      <point x="533" y="44"/>
      <point x="562" y="56" type="curve"/>
      <point x="580" y="25"/>
      <point x="611" y="0"/>
      <point x="694" y="0" type="curve" smooth="yes"/>
      <point x="817" y="0" type="line"/>
      <point x="817" y="106" type="line"/>
      <point x="710" y="106" type="line" smooth="yes"/>
    </contour>
    <contour>
      <point x="575" y="184"/>
      <point x="553" y="201"/>
      <point x="539" y="211" type="curve"/>
      <point x="573" y="215"/>
      <point x="608" y="211"/>
      <point x="646" y="197" type="curve"/>
      <point x="629" y="181"/>
      <point x="610" y="168"/>
      <point x="590" y="156" type="curve"/>
    </contour>
    <contour>
      <point x="409" y="0" type="move" name="caret_1"/>
    </contour>
    <contour>
      <point x="618" y="-145" type="move" name="bottom_1"/>
    </contour>
    <contour>
      <point x="566" y="315" type="move" name="top_1"/>
    </contour>
    <contour>
      <point x="268" y="82" type="move" name="top_2"/>
    </contour>
    <contour>
      <point x="281" y="-279" type="move" name="bottom_2"/>
    </contour>
  </outline>
</glyph>
<glyph name="sad_reh-ar.fina" format="1">
  <advance width="857"/>
  <unicode hex="FD2B"/>
  <outline>
    <contour>
      <point x="-37" y="-203"/>
      <point x="-18" y="-237"/>
      <point x="-11" y="-257" type="curve"/>
      <point x="-8" y="-257" type="line"/>
      <point x="-8" y="-200" type="line"/>
      <point x="7" y="-200"/>
      <point x="70" y="-195"/>
      <point x="110" y="-167" type="curve" smooth="yes"/>
      <point x="144" y="-144"/>
      <point x="171" y="-110"/>
      <point x="186" y="-69" type="curve" smooth="yes"/>
      <point x="197" y="-37"/>
      <point x="202" y="8"/>
      <point x="198" y="45" type="curve"/>
      <point x="232" y="52"/>
      <point x="266" y="58"/>
      <point x="300" y="65" type="curve"/>
      <point x="305" y="39"/>
      <point x="318" y="24"/>
      <point x="339" y="12" type="curve"/>
      <point x="336" y="4"/>
      <point x="326" y="-17"/>
      <point x="326" y="-17" type="curve"/>
      <point x="346" y="-39" type="line"/>
      <point x="369" y="0" type="line"/>
      <point x="413" y="-6"/>
      <point x="451" y="-10"/>
      <point x="485" y="-10" type="curve" smooth="yes"/>
      <point x="573" y="-10"/>
      <point x="637" y="18"/>
      <point x="678" y="53" type="curve"/>
      <point x="692" y="23"/>
      <point x="724" y="0"/>
      <point x="770" y="0" type="curve" smooth="yes"/>
      <point x="857" y="0" type="line"/>
      <point x="857" y="106" type="line"/>
      <point x="774" y="106" type="line" smooth="yes"/>
      <point x="754" y="106"/>
      <point x="738" y="109"/>
      <point x="727" y="115" type="curve"/>
      <point x="736" y="132"/>
      <point x="743" y="152"/>
      <point x="750" y="176" type="curve"/>
      <point x="740" y="202"/>
      <point x="729" y="223"/>
      <point x="715" y="240" type="curve" smooth="yes"/>
      <point x="692" y="268"/>
      <point x="660" y="283"/>
      <point x="614" y="283" type="curve" smooth="yes"/>
      <point x="569" y="283"/>
      <point x="523" y="257"/>
      <point x="483" y="222" type="curve" smooth="yes"/>
      <point x="441" y="186"/>
      <point x="405" y="141"/>
      <point x="384" y="106" type="curve"/>
      <point x="361" y="106"/>
      <point x="341" y="107"/>
      <point x="330" y="118" type="curve" smooth="yes"/>
      <point x="322" y="126"/>
      <point x="318" y="138"/>
      <point x="319" y="157" type="curve"/>
      <point x="254" y="150"/>
      <point x="201" y="140"/>
      <point x="138" y="122" type="curve"/>
      <point x="138" y="42" type="line"/>
      <point x="138" y="-11"/>
      <point x="117" y="-45"/>
      <point x="69" y="-72" type="curve" smooth="yes"/>
      <point x="25" y="-98"/>
      <point x="-49" y="-100"/>
      <point x="-82" y="-101" type="curve"/>
      <point x="-82" y="-206" type="line"/>
    </contour>
    <contour>
      <point x="428" y="102"/>
      <point x="447" y="133"/>
      <point x="482" y="159" type="curve" smooth="yes"/>
      <point x="509" y="180"/>
      <point x="546" y="199"/>
      <point x="590" y="199" type="curve" smooth="yes"/>
      <point x="614" y="199"/>
      <point x="632" y="192"/>
      <point x="646" y="183" type="curve"/>
      <point x="668" y="167"/>
      <point x="677" y="147"/>
      <point x="677" y="147" type="curve"/>
      <point x="674" y="143"/>
      <point x="646" y="102"/>
      <point x="512" y="102" type="curve" smooth="yes"/>
      <point x="428" y="102" type="line" smooth="yes"/>
    </contour>
    <contour>
      <point x="429" y="0" type="move" name="caret_1"/>
    </contour>
    <contour>
      <point x="485" y="-55" type="move" name="bottom_1"/>
    </contour>
    <contour>
      <point x="594" y="303" type="move" name="top_1"/>
    </contour>
    <contour>
      <point x="138" y="172" type="move" name="top_2"/>
    </contour>
    <contour>
      <point x="12" y="-277" type="move" name="bottom_2"/>
    </contour>
  </outline>
</glyph>
<glyph name="seen-ar.fina" format="1">
  <advance width="912"/>
  <unicode hex="FEB2"/>
  <outline>
    <contour>
      <point x="842" y="106"/>
      <point x="819" y="122"/>
      <point x="805" y="144" type="curve" smooth="yes"/>
      <point x="793" y="163"/>
      <point x="788" y="186"/>
      <point x="787" y="207" type="curve"/>
      <point x="773" y="215" type="line"/>
      <point x="773" y="189"/>
      <point x="769" y="161"/>
      <point x="758" y="141" type="curve" smooth="yes"/>
      <point x="748" y="125"/>
      <point x="731" y="112"/>
      <point x="705" y="112" type="curve" smooth="yes"/>
      <point x="676" y="112"/>
      <point x="658" y="122"/>
      <point x="646" y="138" type="curve" smooth="yes"/>
      <point x="632" y="156"/>
      <point x="627" y="182"/>
      <point x="626" y="207" type="curve"/>
      <point x="611" y="215" type="line"/>
      <point x="608" y="184"/>
      <point x="604" y="161"/>
      <point x="583" y="139" type="curve" smooth="yes"/>
      <point x="574" y="131"/>
      <point x="564" y="124"/>
      <point x="550" y="119" type="curve" smooth="yes"/>
      <point x="538" y="115"/>
      <point x="523" y="112"/>
      <point x="505" y="112" type="curve" smooth="yes"/>
      <point x="481" y="112"/>
      <point x="460" y="117"/>
      <point x="442" y="128" type="curve" smooth="yes"/>
      <point x="424" y="139"/>
      <point x="415" y="155"/>
      <point x="406" y="178" type="curve"/>
      <point x="390" y="162" type="line"/>
      <point x="387" y="152"/>
      <point x="386" y="142"/>
      <point x="386" y="133" type="curve" smooth="yes"/>
      <point x="386" y="109"/>
      <point x="391" y="72"/>
      <point x="415" y="40" type="curve" smooth="yes"/>
      <point x="443" y="5"/>
      <point x="458" y="-13"/>
      <point x="468" y="-25" type="curve"/>
      <point x="463" y="-41"/>
      <point x="442" y="-85"/>
      <point x="373" y="-108" type="curve" smooth="yes"/>
      <point x="351" y="-115"/>
      <point x="322" y="-120"/>
      <point x="287" y="-120" type="curve" smooth="yes"/>
      <point x="229" y="-120"/>
      <point x="190" y="-106"/>
      <point x="163" y="-86" type="curve" smooth="yes"/>
      <point x="116" y="-52"/>
      <point x="109" y="-9"/>
      <point x="109" y="9" type="curve" smooth="yes"/>
      <point x="109" y="65"/>
      <point x="128" y="95"/>
      <point x="143" y="115" type="curve"/>
      <point x="127" y="131" type="line"/>
      <point x="107" y="108"/>
      <point x="95" y="83"/>
      <point x="86" y="57" type="curve" smooth="yes"/>
      <point x="70" y="7"/>
      <point x="70" y="-39"/>
      <point x="70" y="-51" type="curve" smooth="yes"/>
      <point x="70" y="-83"/>
      <point x="80" y="-144"/>
      <point x="126" y="-187" type="curve" smooth="yes"/>
      <point x="157" y="-217"/>
      <point x="205" y="-238"/>
      <point x="276" y="-238" type="curve" smooth="yes"/>
      <point x="335" y="-238"/>
      <point x="395" y="-222"/>
      <point x="439" y="-185" type="curve" smooth="yes"/>
      <point x="476" y="-152"/>
      <point x="502" y="-103"/>
      <point x="503" y="-32" type="curve" smooth="yes"/>
      <point x="503" y="-25"/>
      <point x="502" y="-9"/>
      <point x="501" y="5" type="curve"/>
      <point x="528" y="5"/>
      <point x="556" y="10"/>
      <point x="578" y="22" type="curve" smooth="yes"/>
      <point x="598" y="34"/>
      <point x="613" y="51"/>
      <point x="619" y="76" type="curve"/>
      <point x="622" y="58"/>
      <point x="629" y="41"/>
      <point x="642" y="28" type="curve" smooth="yes"/>
      <point x="656" y="15"/>
      <point x="676" y="6"/>
      <point x="702" y="6" type="curve" smooth="yes"/>
      <point x="727" y="6"/>
      <point x="748" y="13"/>
      <point x="762" y="25" type="curve" smooth="yes"/>
      <point x="774" y="35"/>
      <point x="782" y="49"/>
      <point x="784" y="67" type="curve"/>
      <point x="793" y="47"/>
      <point x="803" y="32"/>
      <point x="816" y="22" type="curve" smooth="yes"/>
      <point x="834" y="7"/>
      <point x="856" y="0"/>
      <point x="883" y="0" type="curve" smooth="yes"/>
      <point x="912" y="0" type="line"/>
      <point x="912" y="106" type="line"/>
      <point x="879" y="106" type="line" smooth="yes"/>
    </contour>
    <contour>
      <point x="608" y="250" type="move" name="top"/>
    </contour>
    <contour>
      <point x="276" y="-264" type="move" name="bottom"/>
    </contour>
    <contour>
      <point x="608" y="-113" type="move" name="center"/>
    </contour>
  </outline>
</glyph>
<glyph name="seen-ar.init" format="1">
  <advance width="567"/>
  <unicode hex="FEB3"/>
  <outline>
    <contour>
      <point x="424" y="198" type="line"/>
      <point x="433" y="171"/>
      <point x="442" y="139"/>
      <point x="441" y="115" type="curve"/>
      <point x="441" y="115"/>
      <point x="397" y="110"/>
      <point x="369" y="125" type="curve" smooth="yes"/>
      <point x="333" y="145"/>
      <point x="328" y="185"/>
      <point x="327" y="207" type="curve"/>
      <point x="312" y="214" type="line"/>
      <point x="310" y="186"/>
      <point x="304" y="161"/>
      <point x="286" y="140" type="curve" smooth="yes"/>
      <point x="272" y="124"/>
      <point x="250" y="111"/>
      <point x="216" y="111" type="curve" smooth="yes"/>
      <point x="179" y="111"/>
      <point x="154" y="125"/>
      <point x="139" y="147" type="curve" smooth="yes"/>
      <point x="129" y="163"/>
      <point x="124" y="183"/>
      <point x="124" y="207" type="curve"/>
      <point x="109" y="214" type="line"/>
      <point x="109" y="198"/>
      <point x="105" y="166"/>
      <point x="86" y="141" type="curve" smooth="yes"/>
      <point x="70" y="121"/>
      <point x="46" y="106"/>
      <point x="5" y="106" type="curve" smooth="yes"/>
      <point x="-17" y="106" type="line" smooth="yes"/>
      <point x="-46" y="106"/>
      <point x="-70" y="84"/>
      <point x="-70" y="52" type="curve" smooth="yes"/>
      <point x="-70" y="20"/>
      <point x="-46" y="0"/>
      <point x="-17" y="0" type="curve" smooth="yes"/>
      <point x="10" y="0" type="line" smooth="yes"/>
      <point x="40" y="0"/>
      <point x="65" y="11"/>
      <point x="82" y="27" type="curve" smooth="yes"/>
      <point x="99" y="41"/>
      <point x="110" y="60"/>
      <point x="113" y="76" type="curve"/>
      <point x="119" y="60"/>
      <point x="126" y="45"/>
      <point x="139" y="32" type="curve" smooth="yes"/>
      <point x="154" y="17"/>
      <point x="177" y="5"/>
      <point x="212" y="5" type="curve" smooth="yes"/>
      <point x="240" y="5"/>
      <point x="265" y="12"/>
      <point x="283" y="24" type="curve" smooth="yes"/>
      <point x="302" y="37"/>
      <point x="314" y="54"/>
      <point x="319" y="75" type="curve"/>
      <point x="326" y="60"/>
      <point x="336" y="41"/>
      <point x="355" y="26" type="curve" smooth="yes"/>
      <point x="370" y="15"/>
      <point x="392" y="6"/>
      <point x="423" y="6" type="curve" smooth="yes"/>
      <point x="437" y="6"/>
      <point x="454" y="25"/>
      <point x="469" y="47" type="curve" smooth="yes"/>
      <point x="485" y="69"/>
      <point x="498" y="94"/>
      <point x="500" y="101" type="curve" smooth="yes"/>
      <point x="505" y="119"/>
      <point x="508" y="141"/>
      <point x="507" y="164" type="curve" smooth="yes"/>
      <point x="506" y="206"/>
      <point x="496" y="249"/>
      <point x="477" y="267" type="curve"/>
    </contour>
    <contour>
      <point x="312" y="251" type="move" name="top"/>
    </contour>
    <contour>
      <point x="310" y="-34" type="move" name="bottom"/>
    </contour>
  </outline>
</glyph>
<glyph name="tah-ar.fina" format="1">
  <advance width="719"/>
  <unicode hex="FEC2"/>
  <outline>
    <contour>
      <point x="616" y="106"/>
      <point x="601" y="109"/>
      <point x="590" y="114" type="curve"/>
      <point x="599" y="132"/>
      <point x="606" y="152"/>
      <point x="613" y="176" type="curve"/>
      <point x="603" y="204"/>
      <point x="591" y="227"/>
      <point x="574" y="245" type="curve" smooth="yes"/>
      <point x="552" y="268"/>
      <point x="522" y="283"/>
      <point x="482" y="283" type="curve" smooth="yes"/>
      <point x="427" y="283"/>
      <point x="382" y="255"/>
      <point x="337" y="214" type="curve"/>
      <point x="350" y="275"/>
      <point x="347" y="338"/>
      <point x="339" y="404" type="curve" smooth="yes"/>
      <point x="332" y="464"/>
      <point x="322" y="512"/>
      <point x="319" y="532" type="curve" smooth="yes"/>
      <point x="314" y="562"/>
      <point x="320" y="575"/>
      <point x="339" y="594" type="curve"/>
      <point x="309" y="616"/>
      <point x="291" y="641"/>
      <point x="273" y="681" type="curve"/>
      <point x="247" y="677"/>
      <point x="234" y="659"/>
      <point x="227" y="639" type="curve" smooth="yes"/>
      <point x="217" y="610"/>
      <point x="220" y="579"/>
      <point x="220" y="579" type="curve"/>
      <point x="236" y="565" type="line"/>
      <point x="252" y="524"/>
      <point x="266" y="470"/>
      <point x="275" y="411" type="curve" smooth="yes"/>
      <point x="286" y="339"/>
      <point x="291" y="257"/>
      <point x="292" y="167" type="curve"/>
      <point x="275" y="147"/>
      <point x="259" y="124"/>
      <point x="248" y="106" type="curve"/>
      <point x="248" y="106"/>
      <point x="191" y="106"/>
      <point x="175" y="106" type="curve" smooth="yes"/>
      <point x="144" y="106"/>
      <point x="70" y="109"/>
      <point x="70" y="109" type="curve"/>
      <point x="137" y="-5" type="line"/>
      <point x="195" y="-4" type="line"/>
      <point x="192" y="-11"/>
      <point x="189" y="-17"/>
      <point x="189" y="-17" type="curve"/>
      <point x="209" y="-39" type="line"/>
      <point x="230" y="-3" type="line"/>
      <point x="348" y="0" type="line" smooth="yes"/>
      <point x="415" y="1"/>
      <point x="451" y="8"/>
      <point x="490" y="24" type="curve" smooth="yes"/>
      <point x="531" y="41"/>
      <point x="541" y="53"/>
      <point x="541" y="53" type="curve"/>
      <point x="545" y="44"/>
      <point x="566" y="0"/>
      <point x="632" y="0" type="curve" smooth="yes"/>
      <point x="719" y="0" type="line"/>
      <point x="719" y="106" type="line"/>
      <point x="637" y="106" type="line" smooth="yes"/>
    </contour>
    <contour>
      <point x="291" y="106" type="line" smooth="yes"/>
      <point x="291" y="106"/>
      <point x="310" y="136"/>
      <point x="345" y="163" type="curve" smooth="yes"/>
      <point x="372" y="184"/>
      <point x="409" y="203"/>
      <point x="453" y="203" type="curve" smooth="yes"/>
      <point x="479" y="203"/>
      <point x="497" y="196"/>
      <point x="513" y="183" type="curve" smooth="yes"/>
      <point x="523" y="175"/>
      <point x="531" y="164"/>
      <point x="540" y="151" type="curve"/>
      <point x="536" y="147"/>
      <point x="509" y="106"/>
      <point x="375" y="106" type="curve" smooth="yes"/>
    </contour>
    <contour>
      <point x="473" y="309" type="move" name="top"/>
    </contour>
    <contour>
      <point x="348" y="-34" type="move" name="bottom"/>
    </contour>
  </outline>
</glyph>
<glyph name="TahSmallTwoDotscenterar" format="1">
  <advance width="0"/>
  <outline>
    <contour>
      <point x="-84" y="148"/>
      <point x="-66" y="131"/>
      <point x="-41" y="106" type="curve"/>
      <point x="-21" y="126"/>
      <point x="-10" y="139"/>
      <point x="0" y="152" type="curve"/>
      <point x="16" y="140"/>
      <point x="32" y="126"/>
      <point x="51" y="106" type="curve"/>
      <point x="79" y="133"/>
      <point x="91" y="149"/>
      <point x="104" y="167" type="curve"/>
      <point x="92" y="186"/>
      <point x="64" y="210"/>
      <point x="40" y="222" type="curve"/>
      <point x="32" y="210"/>
      <point x="17" y="193"/>
      <point x="3" y="178" type="curve"/>
      <point x="-11" y="194"/>
      <point x="-33" y="212"/>
      <point x="-52" y="222" type="curve"/>
      <point x="-65" y="205"/>
      <point x="-90" y="177"/>
      <point x="-105" y="160" type="curve"/>
    </contour>
    <contour>
      <point x="-71" y="244" type="line"/>
      <point x="0" y="245" type="line"/>
      <point x="26" y="245"/>
      <point x="43" y="250"/>
      <point x="54" y="258" type="curve"/>
      <point x="64" y="264"/>
      <point x="71" y="271"/>
      <point x="76" y="279" type="curve"/>
      <point x="83" y="289"/>
      <point x="84" y="299"/>
      <point x="86" y="303" type="curve"/>
      <point x="82" y="313"/>
      <point x="78" y="320"/>
      <point x="73" y="326" type="curve" smooth="yes"/>
      <point x="65" y="334"/>
      <point x="54" y="339"/>
      <point x="42" y="339" type="curve" smooth="yes"/>
      <point x="24" y="339"/>
      <point x="9" y="329"/>
      <point x="-6" y="316" type="curve"/>
      <point x="-1" y="331"/>
      <point x="0" y="348"/>
      <point x="-2" y="365" type="curve" smooth="yes"/>
      <point x="-4" y="381"/>
      <point x="-8" y="397"/>
      <point x="-11" y="410" type="curve"/>
      <point x="-14" y="421"/>
      <point x="-12" y="426"/>
      <point x="-5" y="431" type="curve"/>
      <point x="-14" y="438"/>
      <point x="-21" y="447"/>
      <point x="-26" y="459" type="curve"/>
      <point x="-36" y="459"/>
      <point x="-41" y="449"/>
      <point x="-42" y="444" type="curve"/>
      <point x="-45" y="436"/>
      <point x="-44" y="426"/>
      <point x="-44" y="426" type="curve"/>
      <point x="-39" y="421" type="line"/>
      <point x="-31" y="404"/>
      <point x="-27" y="386"/>
      <point x="-24" y="367" type="curve" smooth="yes"/>
      <point x="-21" y="347"/>
      <point x="-20" y="325"/>
      <point x="-20" y="300" type="curve"/>
      <point x="-26" y="294"/>
      <point x="-31" y="286"/>
      <point x="-35" y="280" type="curve"/>
      <point x="-35" y="280"/>
      <point x="-50" y="279"/>
      <point x="-57" y="279" type="curve" smooth="yes"/>
      <point x="-70" y="279"/>
      <point x="-93" y="281"/>
      <point x="-93" y="281" type="curve"/>
    </contour>
    <contour>
      <point x="-26" y="276"/>
      <point x="-18" y="287"/>
      <point x="-6" y="297" type="curve" smooth="yes"/>
      <point x="5" y="306"/>
      <point x="22" y="314"/>
      <point x="39" y="314" type="curve" smooth="yes"/>
      <point x="49" y="314"/>
      <point x="57" y="312"/>
      <point x="63" y="306" type="curve"/>
      <point x="67" y="304"/>
      <point x="69" y="299"/>
      <point x="73" y="294" type="curve"/>
      <point x="58" y="281"/>
      <point x="39" y="276"/>
      <point x="9" y="276" type="curve" smooth="yes"/>
      <point x="-26" y="276" type="line" smooth="yes"/>
    </contour>
    <contour>
      <point x="1" y="311" type="move" name="_center"/>
    </contour>
  </outline>
</glyph>
<glyph name="alef-ar.short" format="1">
  <advance width="169"/>
  <outline>
    <contour>
      <point x="96" y="611"/>
      <point x="60" y="560"/>
      <point x="48" y="542" type="curve" smooth="yes"/>
      <point x="36" y="526"/>
      <point x="27" y="510"/>
      <point x="31" y="458" type="curve" smooth="yes"/>
      <point x="36" y="395"/>
      <point x="57" y="300"/>
      <point x="67" y="168" type="curve" smooth="yes"/>
      <point x="77" y="55"/>
      <point x="72" y="0"/>
      <point x="72" y="0" type="curve"/>
      <point x="83" y="0" type="line"/>
      <point x="83" y="0"/>
      <point x="101" y="22"/>
      <point x="112" y="42" type="curve" smooth="yes"/>
      <point x="123" y="63"/>
      <point x="125" y="87"/>
      <point x="126" y="96" type="curve" smooth="yes"/>
      <point x="131" y="138"/>
      <point x="129" y="194"/>
      <point x="128" y="234" type="curve" smooth="yes"/>
      <point x="124" y="327"/>
      <point x="114" y="426"/>
      <point x="107" y="513" type="curve"/>
      <point x="129" y="508" type="line"/>
      <point x="96" y="611" type="line"/>
    </contour>
    <contour>
      <point x="75" y="611" type="move" name="top"/>
    </contour>
    <contour>
      <point x="85" y="-20" type="move" name="bottom"/>
    </contour>
  </outline>
</glyph>
<glyph name="behThreedotshorizontalbelow-ar.init" format="1">
  <advance width="434"/>
  <outline>
    <contour>
      <point x="374" y="183"/>
      <point x="367" y="223"/>
      <point x="349" y="256" type="curve" smooth="yes"/>
      <point x="335" y="281"/>
      <point x="315" y="303"/>
      <point x="289" y="321" type="curve"/>
      <point x="260" y="215" type="line"/>
      <point x="298" y="196"/>
      <point x="324" y="170"/>
      <point x="335" y="131" type="curve"/>
      <point x="330" y="127"/>
      <point x="326" y="124"/>
      <point x="315" y="119" type="curve" smooth="yes"/>
      <point x="291" y="108"/>
      <point x="261" y="106"/>
      <point x="239" y="106" type="curve" smooth="yes"/>
      <point x="-17" y="106" type="line" smooth="yes"/>
      <point x="-46" y="106"/>
      <point x="-70" y="83"/>
      <point x="-70" y="53" type="curve" smooth="yes"/>
      <point x="-70" y="23"/>
      <point x="-46" y="0"/>
      <point x="-17" y="0" type="curve" smooth="yes"/>
      <point x="247" y="0" type="line" smooth="yes"/>
      <point x="271" y="0"/>
      <point x="315" y="15"/>
      <point x="340" y="39" type="curve" smooth="yes"/>
      <point x="356" y="54"/>
      <point x="374" y="82"/>
      <point x="374" y="117" type="curve" smooth="yes"/>
      <point x="374" y="135"/>
      <point x="374" y="134"/>
      <point x="374" y="148" type="curve" smooth="yes"/>
    </contour>
    <component base="dots.horz.below-ar" xOffset="154" yOffset="30"/>
    <contour>
      <point x="167" y="300" type="move" name="top"/>
    </contour>
  </outline>
</glyph>
<glyph name="dotlessbeh_High-ar" format="1">
  <advance width="341"/>
  <outline>
    <contour>
      <point x="179" y="106"/>
      <point x="131" y="234"/>
      <point x="128" y="276" type="curve"/>
      <point x="101" y="227" type="line"/>
      <point x="103" y="192"/>
      <point x="109" y="160"/>
      <point x="126" y="122" type="curve"/>
      <point x="115" y="114"/>
      <point x="98" y="107"/>
      <point x="58" y="106" type="curve" smooth="yes"/>
      <point x="-17" y="106" type="line" smooth="yes"/>
      <point x="-46" y="106"/>
      <point x="-70" y="83"/>
      <point x="-70" y="54" type="curve" smooth="yes"/>
      <point x="-70" y="25"/>
      <point x="-46" y="0"/>
      <point x="-17" y="0" type="curve" smooth="yes"/>
      <point x="47" y="0" type="line" smooth="yes"/>
      <point x="99" y="0"/>
      <point x="136" y="31"/>
      <point x="153" y="67" type="curve"/>
      <point x="173" y="28"/>
      <point x="215" y="0"/>
      <point x="270" y="0" type="curve" smooth="yes"/>
      <point x="341" y="0" type="line"/>
      <point x="341" y="106" type="line"/>
      <point x="278" y="106" type="line" smooth="yes"/>
    </contour>
    <contour>
      <point x="12" y="232" type="move" name="top"/>
    </contour>
    <contour>
      <point x="47" y="-34" type="move" name="bottom"/>
    </contour>
  </outline>
</glyph>
<glyph name="dotlessbeh_meem-ar.fina" format="1">
  <advance width="563"/>
  <outline>
    <contour>
      <point x="66" y="-205"/>
      <point x="76" y="-257"/>
      <point x="88" y="-313" type="curve" smooth="yes"/>
      <point x="103" y="-380"/>
      <point x="121" y="-463"/>
      <point x="116" y="-541" type="curve"/>
      <point x="133" y="-533" type="line"/>
      <point x="160" y="-479"/>
      <point x="163" y="-435"/>
      <point x="166" y="-407" type="curve" smooth="yes"/>
      <point x="170" y="-364"/>
      <point x="164" y="-319"/>
      <point x="156" y="-277" type="curve" smooth="yes"/>
      <point x="143" y="-213"/>
      <point x="125" y="-155"/>
      <point x="130" y="-114" type="curve"/>
      <point x="147" y="-83"/>
      <point x="190" y="-63"/>
      <point x="237" y="-63" type="curve" smooth="yes"/>
      <point x="278" y="-63"/>
      <point x="321" y="-79"/>
      <point x="350" y="-101" type="curve"/>
      <point x="368" y="17" type="line"/>
      <point x="353" y="52"/>
      <point x="311" y="67"/>
      <point x="271" y="85" type="curve"/>
      <point x="281" y="103"/>
      <point x="301" y="126"/>
      <point x="330" y="126" type="curve" smooth="yes"/>
      <point x="378" y="126"/>
      <point x="394" y="93"/>
      <point x="412" y="61" type="curve" smooth="yes"/>
      <point x="429" y="32"/>
      <point x="454" y="0"/>
      <point x="505" y="0" type="curve" smooth="yes"/>
      <point x="563" y="0" type="line"/>
      <point x="563" y="106" type="line"/>
      <point x="511" y="106" type="line" smooth="yes"/>
      <point x="460" y="106"/>
      <point x="445" y="119"/>
      <point x="430" y="136" type="curve"/>
      <point x="420" y="146"/>
      <point x="412" y="160"/>
      <point x="401" y="179" type="curve" smooth="yes"/>
      <point x="388" y="202"/>
      <point x="372" y="221"/>
      <point x="340" y="221" type="curve" smooth="yes"/>
      <point x="311" y="221"/>
      <point x="280" y="200"/>
      <point x="255" y="169" type="curve" smooth="yes"/>
      <point x="237" y="147"/>
      <point x="222" y="122"/>
      <point x="213" y="94" type="curve" smooth="yes"/>
      <point x="207" y="73"/>
      <point x="204" y="52"/>
      <point x="205" y="28" type="curve"/>
      <point x="159" y="14"/>
      <point x="126" y="-16"/>
      <point x="105" y="-56" type="curve" smooth="yes"/>
      <point x="89" y="-85"/>
      <point x="79" y="-120"/>
      <point x="73" y="-158" type="curve"/>
    </contour>
    <contour>
      <point x="292" y="0" type="move" name="caret_1"/>
    </contour>
    <contour>
      <point x="347" y="-153" type="move" name="bottom_1"/>
    </contour>
    <contour>
      <point x="328" y="251" type="move" name="top_1"/>
    </contour>
    <contour>
      <point x="115" y="106" type="move" name="top_2"/>
    </contour>
    <contour>
      <point x="124" y="-570" type="move" name="bottom_2"/>
    </contour>
  </outline>
</glyph>
<glyph name="dotlessbeh_reh-ar.fina" format="1">
  <advance width="529"/>
  <outline>
    <contour>
      <point x="403" y="106"/>
      <point x="402" y="197"/>
      <point x="402" y="256" type="curve"/>
      <point x="387" y="264" type="line"/>
      <point x="385" y="254"/>
      <point x="380" y="227"/>
      <point x="360" y="207" type="curve" smooth="yes"/>
      <point x="338" y="184"/>
      <point x="293" y="171"/>
      <point x="244" y="173" type="curve" smooth="yes"/>
      <point x="194" y="175"/>
      <point x="139" y="191"/>
      <point x="97" y="227" type="curve"/>
      <point x="65" y="154" type="line" smooth="yes"/>
      <point x="59" y="140"/>
      <point x="65" y="126"/>
      <point x="77" y="117" type="curve" smooth="yes"/>
      <point x="104" y="97"/>
      <point x="130" y="80"/>
      <point x="153" y="54" type="curve"/>
      <point x="153" y="-21"/>
      <point x="117" y="-50"/>
      <point x="81" y="-70" type="curve" smooth="yes"/>
      <point x="37" y="-96"/>
      <point x="-37" y="-98"/>
      <point x="-70" y="-99" type="curve"/>
      <point x="-70" y="-204" type="line"/>
      <point x="-25" y="-201"/>
      <point x="-6" y="-235"/>
      <point x="1" y="-255" type="curve"/>
      <point x="4" y="-255" type="line"/>
      <point x="4" y="-198" type="line"/>
      <point x="19" y="-198"/>
      <point x="82" y="-193"/>
      <point x="122" y="-165" type="curve" smooth="yes"/>
      <point x="147" y="-148"/>
      <point x="167" y="-124"/>
      <point x="184" y="-87" type="curve" smooth="yes"/>
      <point x="213" y="-27"/>
      <point x="217" y="29"/>
      <point x="197" y="84" type="curve"/>
      <point x="210" y="73"/>
      <point x="234" y="67"/>
      <point x="258" y="67" type="curve" smooth="yes"/>
      <point x="306" y="67"/>
      <point x="360" y="88"/>
      <point x="373" y="124" type="curve"/>
      <point x="371" y="89"/>
      <point x="381" y="60"/>
      <point x="399" y="38" type="curve" smooth="yes"/>
      <point x="420" y="14"/>
      <point x="451" y="0"/>
      <point x="490" y="0" type="curve" smooth="yes"/>
      <point x="529" y="0" type="line"/>
      <point x="529" y="106" type="line"/>
      <point x="492" y="106" type="line" smooth="yes"/>
    </contour>
    <contour>
      <point x="263" y="0" type="move" name="caret_1"/>
    </contour>
    <contour>
      <point x="305" y="-34" type="move" name="bottom_1"/>
    </contour>
    <contour>
      <point x="251" y="254" type="move" name="top_1"/>
    </contour>
    <contour>
      <point x="77" y="257" type="move" name="top_2"/>
    </contour>
    <contour>
      <point x="24" y="-275" type="move" name="bottom_2"/>
    </contour>
  </outline>
</glyph>
<glyph name="dotlessbeh_reh-ar" format="1">
  <advance width="457"/>
  <outline>
    <contour>
      <point x="379" y="197" type="line"/>
      <point x="373" y="168"/>
      <point x="358" y="145"/>
      <point x="337" y="129" type="curve" smooth="yes"/>
      <point x="317" y="114"/>
      <point x="291" y="106"/>
      <point x="264" y="106" type="curve"/>
      <point x="228" y="106"/>
      <point x="199" y="113"/>
      <point x="176" y="129" type="curve" smooth="yes"/>
      <point x="160" y="140"/>
      <point x="147" y="156"/>
      <point x="136" y="178" type="curve"/>
      <point x="119" y="162" type="line"/>
      <point x="118" y="153"/>
      <point x="117" y="143"/>
      <point x="117" y="134" type="curve"/>
      <point x="115" y="107"/>
      <point x="126" y="63"/>
      <point x="148" y="42" type="curve"/>
      <point x="142" y="-5"/>
      <point x="119" y="-39"/>
      <point x="83" y="-62" type="curve" smooth="yes"/>
      <point x="45" y="-85"/>
      <point x="-7" y="-97"/>
      <point x="-70" y="-99" type="curve"/>
      <point x="-70" y="-204" type="line"/>
      <point x="-25" y="-201"/>
      <point x="-6" y="-235"/>
      <point x="1" y="-255" type="curve"/>
      <point x="4" y="-255" type="line"/>
      <point x="4" y="-198" type="line"/>
      <point x="66" y="-198"/>
      <point x="118" y="-177"/>
      <point x="154" y="-140" type="curve" smooth="yes"/>
      <point x="189" y="-104"/>
      <point x="209" y="-53"/>
      <point x="206" y="7" type="curve"/>
      <point x="225" y="2"/>
      <point x="243" y="0"/>
      <point x="260" y="0" type="curve" smooth="yes"/>
      <point x="306" y="0"/>
      <point x="343" y="18"/>
      <point x="367" y="50" type="curve" smooth="yes"/>
      <point x="391" y="83"/>
      <point x="402" y="130"/>
      <point x="394" y="189" type="curve"/>
    </contour>
    <contour>
      <point x="235" y="0" type="move" name="caret_1"/>
    </contour>
    <contour>
      <point x="296" y="-55" type="move" name="bottom_1"/>
    </contour>
    <contour>
      <point x="260" y="207" type="move" name="top_1"/>
    </contour>
    <contour>
      <point x="79" y="202" type="move" name="top_2"/>
    </contour>
    <contour>
      <point x="24" y="-275" type="move" name="bottom_2"/>
    </contour>
  </outline>
</glyph>
<glyph name="fourdotscenter-ar" format="1">
  <advance width="0"/>
  <outline>
    <contour>
      <point x="-85" y="148"/>
      <point x="-66" y="131"/>
      <point x="-42" y="106" type="curve"/>
      <point x="-22" y="126"/>
      <point x="-10" y="139"/>
      <point x="0" y="152" type="curve"/>
      <point x="16" y="141"/>
      <point x="32" y="126"/>
      <point x="51" y="106" type="curve"/>
      <point x="79" y="133"/>
      <point x="91" y="149"/>
      <point x="104" y="167" type="curve"/>
      <point x="94" y="183"/>
      <point x="74" y="201"/>
      <point x="54" y="214" type="curve"/>
      <point x="80" y="239"/>
      <point x="92" y="254"/>
      <point x="104" y="271" type="curve"/>
      <point x="92" y="290"/>
      <point x="63" y="314"/>
      <point x="40" y="326" type="curve"/>
      <point x="3" y="282" type="line"/>
      <point x="-11" y="298"/>
      <point x="-34" y="316"/>
      <point x="-53" y="326" type="curve"/>
      <point x="-66" y="310"/>
      <point x="-91" y="281"/>
      <point x="-106" y="264" type="curve"/>
      <point x="-88" y="254"/>
      <point x="-72" y="241"/>
      <point x="-53" y="222" type="curve"/>
      <point x="-66" y="206"/>
      <point x="-91" y="177"/>
      <point x="-106" y="160" type="curve"/>
    </contour>
    <contour>
      <point x="-21" y="232"/>
      <point x="-9" y="244"/>
      <point x="0" y="256" type="curve"/>
      <point x="13" y="248"/>
      <point x="25" y="236"/>
      <point x="40" y="222" type="curve"/>
      <point x="3" y="178" type="line"/>
      <point x="-8" y="191"/>
      <point x="-23" y="204"/>
      <point x="-39" y="214" type="curve"/>
    </contour>
    <contour>
      <point x="-1" y="251" type="move" name="_center"/>
    </contour>
  </outline>
</glyph>
<glyph name="gaf-ar.fina.001" format="1">
  <advance width="1084"/>
  <outline>
    <contour>
      <point x="996" y="106"/>
      <point x="977" y="114"/>
      <point x="966" y="126" type="curve"/>
      <point x="979" y="176"/>
      <point x="973" y="216"/>
      <point x="949" y="245" type="curve" smooth="yes"/>
      <point x="921" y="279"/>
      <point x="869" y="297"/>
      <point x="796" y="297" type="curve" smooth="yes"/>
      <point x="697" y="297"/>
      <point x="656" y="302"/>
      <point x="496" y="302" type="curve" smooth="yes"/>
      <point x="367" y="302"/>
      <point x="262" y="311"/>
      <point x="217" y="360" type="curve"/>
      <point x="245" y="441"/>
      <point x="315" y="444"/>
      <point x="386" y="444" type="curve" smooth="yes"/>
      <point x="491" y="444" type="line"/>
      <point x="491" y="387" type="line"/>
      <point x="494" y="387" type="line"/>
      <point x="499" y="408"/>
      <point x="516" y="444"/>
      <point x="562" y="444" type="curve"/>
      <point x="591" y="543" type="line"/>
      <point x="411" y="543" type="line" smooth="yes"/>
      <point x="314" y="543"/>
      <point x="248" y="506"/>
      <point x="210" y="456" type="curve" smooth="yes"/>
      <point x="183" y="421"/>
      <point x="170" y="379"/>
      <point x="170" y="340" type="curve" smooth="yes"/>
      <point x="170" y="285"/>
      <point x="197" y="251"/>
      <point x="249" y="229" type="curve" smooth="yes"/>
      <point x="312" y="203"/>
      <point x="412" y="196"/>
      <point x="541" y="196" type="curve" smooth="yes"/>
      <point x="615" y="196"/>
      <point x="712" y="195"/>
      <point x="787" y="196" type="curve" smooth="yes"/>
      <point x="832" y="196"/>
      <point x="862" y="186"/>
      <point x="880" y="169" type="curve" smooth="yes"/>
      <point x="901" y="151"/>
      <point x="905" y="124"/>
      <point x="897" y="98" type="curve"/>
      <point x="790" y="100"/>
      <point x="653" y="104"/>
      <point x="542" y="104" type="curve" smooth="yes"/>
      <point x="447" y="104"/>
      <point x="326" y="105"/>
      <point x="295" y="105" type="curve" smooth="yes"/>
      <point x="180" y="105"/>
      <point x="70" y="123"/>
      <point x="70" y="123" type="curve"/>
      <point x="143" y="-3" type="line"/>
      <point x="143" y="-3"/>
      <point x="187" y="-2"/>
      <point x="201" y="-2" type="curve" smooth="yes"/>
      <point x="309" y="0"/>
      <point x="566" y="5"/>
      <point x="663" y="5" type="curve" smooth="yes"/>
      <point x="734" y="5"/>
      <point x="836" y="6"/>
      <point x="933" y="0" type="curve"/>
      <point x="946" y="53" type="line"/>
      <point x="950" y="44"/>
      <point x="971" y="0"/>
      <point x="1037" y="0" type="curve" smooth="yes"/>
      <point x="1084" y="0" type="line"/>
      <point x="1084" y="106" type="line"/>
      <point x="1029" y="106" type="line" smooth="yes"/>
    </contour>
    <contour>
      <point x="325" y="574"/>
      <point x="365" y="576"/>
      <point x="430" y="576" type="curve" smooth="yes"/>
      <point x="563" y="576" type="line"/>
      <point x="573" y="613" type="line"/>
      <point x="377" y="613" type="line" smooth="yes"/>
      <point x="325" y="613"/>
      <point x="290" y="597"/>
      <point x="268" y="578" type="curve" smooth="yes"/>
      <point x="243" y="556"/>
      <point x="232" y="532"/>
      <point x="230" y="525" type="curve"/>
      <point x="238" y="517" type="line"/>
      <point x="255" y="541"/>
      <point x="270" y="555"/>
      <point x="298" y="563" type="curve" smooth="yes"/>
    </contour>
    <contour>
      <point x="489" y="641" type="move" name="top"/>
    </contour>
  </outline>
</glyph>
<glyph name="gafbar-ar" format="1">
  <advance width="0"/>
  <outline>
    <contour>
      <point x="125" y="870" type="line"/>
      <point x="125" y="870"/>
      <point x="-96" y="758"/>
      <point x="-96" y="758" type="curve"/>
      <point x="-130" y="705" type="line"/>
      <point x="-123" y="700" type="line"/>
      <point x="-83" y="727"/>
      <point x="82" y="804"/>
      <point x="116" y="828" type="curve"/>
    </contour>
    <contour>
      <point x="-2" y="851" type="move" name="top"/>
    </contour>
    <contour>
      <point x="-62" y="754" type="move" name="_top"/>
    </contour>
  </outline>
</glyph>
<glyph name="meem-ar.alt" format="1">
  <advance width="523"/>
  <outline>
    <contour>
      <point x="345" y="273"/>
      <point x="318" y="252"/>
      <point x="300" y="222" type="curve" smooth="yes"/>
      <point x="285" y="196"/>
      <point x="276" y="164"/>
      <point x="276" y="133" type="curve" smooth="yes"/>
      <point x="276" y="79"/>
      <point x="226" y="25"/>
      <point x="191" y="0" type="curve" smooth="yes"/>
      <point x="151" y="-30"/>
      <point x="90" y="-64"/>
      <point x="30" y="-91" type="curve"/>
      <point x="44" y="-120" type="line"/>
      <point x="130" y="-120" type="line"/>
      <point x="140" y="-120"/>
      <point x="195" y="-119"/>
      <point x="244" y="-77" type="curve" smooth="yes"/>
      <point x="272" y="-52"/>
      <point x="296" y="-15"/>
      <point x="299" y="44" type="curve"/>
      <point x="315" y="21"/>
      <point x="339" y="6"/>
      <point x="374" y="6" type="curve" smooth="yes"/>
      <point x="410" y="6"/>
      <point x="438" y="29"/>
      <point x="438" y="29" type="curve"/>
      <point x="462" y="131" type="line"/>
      <point x="468" y="157"/>
      <point x="456" y="195"/>
      <point x="438" y="224" type="curve" smooth="yes"/>
      <point x="422" y="252"/>
      <point x="399" y="273"/>
      <point x="378" y="273" type="curve" smooth="yes"/>
    </contour>
    <contour>
      <point x="376" y="100"/>
      <point x="334" y="118"/>
      <point x="308" y="143" type="curve"/>
      <point x="320" y="166"/>
      <point x="345" y="182"/>
      <point x="369" y="182" type="curve" smooth="yes"/>
      <point x="399" y="182"/>
      <point x="429" y="140"/>
      <point x="429" y="140" type="curve"/>
      <point x="418" y="120"/>
      <point x="409" y="100"/>
      <point x="409" y="100" type="curve" smooth="yes"/>
    </contour>
    <contour>
      <point x="368" y="303" type="move" name="top"/>
    </contour>
    <contour>
      <point x="160" y="-145" type="move" name="bottom"/>
    </contour>
  </outline>
</glyph>
<glyph name="meem-ar.altfina" format="1">
  <advance width="598"/>
  <outline>
    <contour>
      <point x="523" y="106"/>
      <point x="499" y="114"/>
      <point x="485" y="132" type="curve" smooth="yes"/>
      <point x="472" y="149"/>
      <point x="466" y="176"/>
      <point x="466" y="214" type="curve"/>
      <point x="466" y="267" type="line"/>
      <point x="396" y="267"/>
      <point x="353" y="243"/>
      <point x="325" y="214" type="curve" smooth="yes"/>
      <point x="294" y="181"/>
      <point x="282" y="139"/>
      <point x="272" y="112" type="curve" smooth="yes"/>
      <point x="257" y="66"/>
      <point x="221" y="23"/>
      <point x="191" y="0" type="curve" smooth="yes"/>
      <point x="151" y="-30"/>
      <point x="90" y="-64"/>
      <point x="30" y="-90" type="curve"/>
      <point x="44" y="-120" type="line"/>
      <point x="130" y="-120" type="line"/>
      <point x="136" y="-120"/>
      <point x="195" y="-118"/>
      <point x="244" y="-76" type="curve" smooth="yes"/>
      <point x="270" y="-53"/>
      <point x="293" y="-19"/>
      <point x="298" y="33" type="curve"/>
      <point x="361" y="16"/>
      <point x="420" y="-11"/>
      <point x="472" y="-51" type="curve"/>
      <point x="472" y="21" type="line"/>
      <point x="492" y="7"/>
      <point x="520" y="0"/>
      <point x="557" y="0" type="curve" smooth="yes"/>
      <point x="598" y="0" type="line"/>
      <point x="598" y="106" type="line"/>
      <point x="557" y="106" type="line" smooth="yes"/>
    </contour>
    <contour>
      <point x="348" y="152"/>
      <point x="378" y="168"/>
      <point x="425" y="161" type="curve"/>
      <point x="425" y="130"/>
      <point x="427" y="103"/>
      <point x="433" y="81" type="curve"/>
      <point x="400" y="101"/>
      <point x="365" y="117"/>
      <point x="328" y="129" type="curve"/>
    </contour>
    <contour>
      <point x="416" y="297" type="move" name="top"/>
    </contour>
    <contour>
      <point x="160" y="-145" type="move" name="bottom"/>
    </contour>
  </outline>
</glyph>
<glyph name="three-ar.below" format="1">
  <advance width="0"/>
  <outline>
    <contour>
      <point x="76" y="-204" type="line"/>
      <point x="76" y="-213"/>
      <point x="74" y="-240"/>
      <point x="55" y="-240" type="curve" smooth="yes"/>
      <point x="44" y="-240"/>
      <point x="38" y="-235"/>
      <point x="35" y="-228" type="curve" smooth="yes"/>
      <point x="32" y="-221"/>
      <point x="32" y="-213"/>
      <point x="32" y="-208" type="curve"/>
      <point x="22" y="-204" type="line"/>
      <point x="21" y="-215"/>
      <point x="20" y="-247"/>
      <point x="-8" y="-247" type="curve" smooth="yes"/>
      <point x="-22" y="-247"/>
      <point x="-34" y="-239"/>
      <point x="-42" y="-229" type="curve" smooth="yes"/>
      <point x="-52" y="-217"/>
      <point x="-57" y="-204"/>
      <point x="-57" y="-204" type="curve" smooth="yes"/>
      <point x="-57" y="-204"/>
      <point x="-70" y="-229"/>
      <point x="-74" y="-237" type="curve" smooth="yes"/>
      <point x="-78" y="-245"/>
      <point x="-83" y="-254"/>
      <point x="-76" y="-275" type="curve" smooth="yes"/>
      <point x="-69" y="-296"/>
      <point x="-60" y="-317"/>
      <point x="-51" y="-350" type="curve" smooth="yes"/>
      <point x="-44" y="-377"/>
      <point x="-38" y="-413"/>
      <point x="-34" y="-463" type="curve"/>
      <point x="-30" y="-463" type="line"/>
      <point x="-30" y="-463"/>
      <point x="-17" y="-438"/>
      <point x="-17" y="-414" type="curve" smooth="yes"/>
      <point x="-17" y="-391"/>
      <point x="-18" y="-371"/>
      <point x="-20" y="-353" type="curve" smooth="yes"/>
      <point x="-22" y="-333"/>
      <point x="-24" y="-315"/>
      <point x="-27" y="-299" type="curve"/>
      <point x="-15" y="-299"/>
      <point x="-6" y="-297"/>
      <point x="0" y="-293" type="curve" smooth="yes"/>
      <point x="12" y="-287"/>
      <point x="17" y="-278"/>
      <point x="17" y="-278" type="curve"/>
      <point x="22" y="-282"/>
      <point x="28" y="-287"/>
      <point x="43" y="-287" type="curve" smooth="yes"/>
      <point x="56" y="-287"/>
      <point x="66" y="-282"/>
      <point x="72" y="-274" type="curve" smooth="yes"/>
      <point x="80" y="-264"/>
      <point x="83" y="-250"/>
      <point x="85" y="-238" type="curve" smooth="yes"/>
      <point x="87" y="-225"/>
      <point x="86" y="-213"/>
      <point x="86" y="-208" type="curve"/>
    </contour>
    <contour>
      <point x="0" y="-184" type="move" name="_bottom"/>
    </contour>
    <contour>
      <point x="0" y="-484" type="move" name="bottom"/>
    </contour>
  </outline>
</glyph>
<glyph name="two-ar.below" format="1">
  <advance width="0"/>
  <outline>
    <contour>
      <point x="54" y="-206" type="line"/>
      <point x="52" y="-217"/>
      <point x="48" y="-249"/>
      <point x="10" y="-249" type="curve" smooth="yes"/>
      <point x="-7" y="-249"/>
      <point x="-20" y="-238"/>
      <point x="-28" y="-227" type="curve" smooth="yes"/>
      <point x="-36" y="-216"/>
      <point x="-41" y="-206"/>
      <point x="-41" y="-206" type="curve" smooth="yes"/>
      <point x="-41" y="-206"/>
      <point x="-53" y="-231"/>
      <point x="-57" y="-239" type="curve" smooth="yes"/>
      <point x="-61" y="-247"/>
      <point x="-67" y="-256"/>
      <point x="-60" y="-277" type="curve" smooth="yes"/>
      <point x="-52" y="-300"/>
      <point x="-42" y="-322"/>
      <point x="-33" y="-361" type="curve" smooth="yes"/>
      <point x="-27" y="-387"/>
      <point x="-21" y="-420"/>
      <point x="-18" y="-465" type="curve"/>
      <point x="-13" y="-465" type="line"/>
      <point x="-13" y="-465"/>
      <point x="-1" y="-440"/>
      <point x="-1" y="-416" type="curve" smooth="yes"/>
      <point x="-1" y="-369"/>
      <point x="-5" y="-331"/>
      <point x="-11" y="-299" type="curve"/>
      <point x="-2" y="-300"/>
      <point x="14" y="-299"/>
      <point x="28" y="-292" type="curve" smooth="yes"/>
      <point x="45" y="-285"/>
      <point x="60" y="-269"/>
      <point x="64" y="-240" type="curve" smooth="yes"/>
      <point x="65" y="-230"/>
      <point x="64" y="-220"/>
      <point x="64" y="-210" type="curve"/>
    </contour>
    <contour>
      <point x="5" y="-184" type="move" name="_bottom"/>
    </contour>
    <contour>
      <point x="5" y="-484" type="move" name="bottom"/>
    </contour>
  </outline>
</glyph>
<glyph name="yehRohingya-ar.pt.fina" format="1">
  <advance width="590"/>
  <outline>
    <contour>
      <point x="70" y="-57"/>
      <point x="82" y="-85"/>
      <point x="101" y="-107" type="curve" smooth="yes"/>
      <point x="119" y="-128"/>
      <point x="143" y="-143"/>
      <point x="170" y="-146" type="curve"/>
      <point x="196" y="-129" type="line"/>
      <point x="167" y="-116"/>
      <point x="141" y="-93"/>
      <point x="141" y="-58" type="curve" smooth="yes"/>
      <point x="141" y="-25"/>
      <point x="162" y="0"/>
      <point x="212" y="0" type="curve" smooth="yes"/>
      <point x="290" y="0" type="line" smooth="yes"/>
      <point x="343" y="0"/>
      <point x="394" y="20"/>
      <point x="410" y="36" type="curve"/>
      <point x="450" y="9"/>
      <point x="490" y="0"/>
      <point x="542" y="0" type="curve" smooth="yes"/>
      <point x="590" y="0" type="line"/>
      <point x="590" y="106" type="line"/>
      <point x="542" y="106" type="line" smooth="yes"/>
      <point x="535" y="106"/>
      <point x="499" y="107"/>
      <point x="487" y="109" type="curve"/>
      <point x="487" y="109"/>
      <point x="507" y="129"/>
      <point x="507" y="167" type="curve" smooth="yes"/>
      <point x="507" y="202" type="line" smooth="yes"/>
      <point x="507" y="246"/>
      <point x="505" y="321"/>
      <point x="439" y="321" type="curve" smooth="yes"/>
      <point x="415" y="321"/>
      <point x="390" y="311"/>
      <point x="368" y="289" type="curve" smooth="yes"/>
      <point x="335" y="256"/>
      <point x="330" y="224"/>
      <point x="330" y="179" type="curve" smooth="yes"/>
      <point x="330" y="152" type="line" smooth="yes"/>
      <point x="330" y="141"/>
      <point x="333" y="126"/>
      <point x="339" y="111" type="curve"/>
      <point x="332" y="107"/>
      <point x="321" y="106"/>
      <point x="297" y="106" type="curve" smooth="yes"/>
      <point x="219" y="106" type="line" smooth="yes"/>
      <point x="173" y="106"/>
      <point x="133" y="92"/>
      <point x="107" y="65" type="curve" smooth="yes"/>
      <point x="84" y="42"/>
      <point x="70" y="10"/>
      <point x="70" y="-31" type="curve" smooth="yes"/>
    </contour>
    <contour>
      <point x="371" y="204"/>
      <point x="399" y="217"/>
      <point x="427" y="217" type="curve" smooth="yes"/>
      <point x="461" y="217"/>
      <point x="484" y="198"/>
      <point x="484" y="198" type="curve"/>
      <point x="464" y="164"/>
      <point x="433" y="145"/>
      <point x="396" y="131" type="curve"/>
      <point x="365" y="142"/>
      <point x="349" y="173"/>
      <point x="349" y="173" type="curve"/>
    </contour>
    <contour>
      <point x="415" y="351" type="move" name="top"/>
    </contour>
    <contour>
      <point x="329" y="-34" type="move" name="bottom"/>
    </contour>
  </outline>
</glyph>
